<?xml version="1.0" encoding="UTF-8"?>
<!--Generator: Apple Native CoreSVG 341-->
<!DOCTYPE svg
PUBLIC "-//W3C//DTD SVG 1.1//EN"
       "http://www.w3.org/Graphics/SVG/1.1/DTD/svg11.dtd">
<svg version="1.1" xmlns="http://www.w3.org/2000/svg" xmlns:xlink="http://www.w3.org/1999/xlink" viewBox="0 0 3300 2200">
 <!--glyph: "100580", point size: 100.0, font version: "21.1d1e1", template writer version: "138.0.0"-->
 <style>.defaults {-sfsymbols-variable-value-mode:color;-sfsymbols-draw-reverses-motion-groups:false}

.monochrome-0 {-sfsymbols-variable-threshold:0.51;-sfsymbols-motion-group:2;-sfsymbols-layer-tags:antenna.radiowaves.left.and.right}
.monochrome-1 {-sfsymbols-variable-threshold:0.0;-sfsymbols-motion-group:1;-sfsymbols-layer-tags:antenna.radiowaves.left.and.right}
.monochrome-2 {-sfsymbols-motion-group:0;-sfsymbols-layer-tags:antenna.radiowaves.left.and.right}

.multicolor-0:systemGreenColor {-sfsymbols-variable-threshold:0.51;-sfsymbols-motion-group:2;-sfsymbols-layer-tags:antenna.radiowaves.left.and.right}
.multicolor-1:systemGreenColor {-sfsymbols-variable-threshold:0.0;-sfsymbols-motion-group:1;-sfsymbols-layer-tags:antenna.radiowaves.left.and.right}
.multicolor-2:systemGreenColor {-sfsymbols-motion-group:0;-sfsymbols-layer-tags:antenna.radiowaves.left.and.right}

.hierarchical-0:secondary {-sfsymbols-variable-threshold:0.51;-sfsymbols-motion-group:2;-sfsymbols-layer-tags:antenna.radiowaves.left.and.right}
.hierarchical-1:secondary {-sfsymbols-variable-threshold:0.0;-sfsymbols-motion-group:1;-sfsymbols-layer-tags:antenna.radiowaves.left.and.right}
.hierarchical-2:primary {-sfsymbols-motion-group:0;-sfsymbols-layer-tags:antenna.radiowaves.left.and.right}

.SFSymbolsPreviewWireframe {fill:none;opacity:1.0;stroke:black;stroke-width:0.5}
</style>
 <g id="Notes">
  <rect height="2200" id="artboard" style="fill:white;opacity:1" width="3300" x="0" y="0"/>
  <line style="fill:none;stroke:black;opacity:1;stroke-width:0.5;" x1="263" x2="3036" y1="292" y2="292"/>
  <text style="stroke:none;fill:black;font-family:sans-serif;font-size:13;font-weight:bold;" transform="matrix(1 0 0 1 263 322)">Weight/Scale Variations</text>
  <text style="stroke:none;fill:black;font-family:sans-serif;font-size:13;text-anchor:middle;" transform="matrix(1 0 0 1 559.711 322)">Ultralight</text>
  <text style="stroke:none;fill:black;font-family:sans-serif;font-size:13;text-anchor:middle;" transform="matrix(1 0 0 1 856.422 322)">Thin</text>
  <text style="stroke:none;fill:black;font-family:sans-serif;font-size:13;text-anchor:middle;" transform="matrix(1 0 0 1 1153.13 322)">Light</text>
  <text style="stroke:none;fill:black;font-family:sans-serif;font-size:13;text-anchor:middle;" transform="matrix(1 0 0 1 1449.84 322)">Regular</text>
  <text style="stroke:none;fill:black;font-family:sans-serif;font-size:13;text-anchor:middle;" transform="matrix(1 0 0 1 1746.56 322)">Medium</text>
  <text style="stroke:none;fill:black;font-family:sans-serif;font-size:13;text-anchor:middle;" transform="matrix(1 0 0 1 2043.27 322)">Semibold</text>
  <text style="stroke:none;fill:black;font-family:sans-serif;font-size:13;text-anchor:middle;" transform="matrix(1 0 0 1 2339.98 322)">Bold</text>
  <text style="stroke:none;fill:black;font-family:sans-serif;font-size:13;text-anchor:middle;" transform="matrix(1 0 0 1 2636.69 322)">Heavy</text>
  <text style="stroke:none;fill:black;font-family:sans-serif;font-size:13;text-anchor:middle;" transform="matrix(1 0 0 1 2933.4 322)">Black</text>
  <line style="fill:none;stroke:black;opacity:1;stroke-width:0.5;" x1="263" x2="3036" y1="1903" y2="1903"/>
  <g transform="matrix(0.2 0 0 0.2 263 1933)">
   <path d="m46.2402 4.15039c21.7773 0 39.4531-17.627 39.4531-39.4043s-17.6758-39.4043-39.4531-39.4043c-21.7285 0-39.4043 17.627-39.4043 39.4043s17.6758 39.4043 39.4043 39.4043Zm0-7.42188c-17.6758 0-31.9336-14.3066-31.9336-31.9824s14.2578-31.9824 31.9336-31.9824 31.9824 14.3066 31.9824 31.9824-14.3066 31.9824-31.9824 31.9824Zm3.61328-17.7734v-28.4668c0-2.24609-1.46484-3.75977-3.71094-3.75977-2.14844 0-3.61328 1.51367-3.61328 3.75977v28.4668c0 2.19727 1.46484 3.71094 3.61328 3.71094 2.24609 0 3.71094-1.51367 3.71094-3.71094Zm-17.8223-10.5957h28.418c2.19727 0 3.71094-1.46484 3.71094-3.61328 0-2.19727-1.51367-3.71094-3.71094-3.71094h-28.418c-2.24609 0-3.75977 1.51367-3.75977 3.71094 0 2.14844 1.51367 3.61328 3.75977 3.61328Z"/>
  </g>
  <g transform="matrix(0.2 0 0 0.2 281.506 1933)">
   <path d="m58.5449 14.5508c27.4902 0 49.8047-22.3145 49.8047-49.8047s-22.3145-49.8047-49.8047-49.8047-49.8047 22.3145-49.8047 49.8047 22.3145 49.8047 49.8047 49.8047Zm0-8.30078c-22.9492 0-41.5039-18.5547-41.5039-41.5039s18.5547-41.5039 41.5039-41.5039 41.5039 18.5547 41.5039 41.5039-18.5547 41.5039-41.5039 41.5039Zm4.05273-23.0957v-36.9141c0-2.49023-1.70898-4.19922-4.15039-4.19922-2.39258 0-4.05273 1.70898-4.05273 4.19922v36.9141c0 2.44141 1.66016 4.15039 4.05273 4.15039 2.44141 0 4.15039-1.66016 4.15039-4.15039Zm-22.5586-14.4043h36.9629c2.44141 0 4.15039-1.61133 4.15039-4.00391 0-2.44141-1.70898-4.15039-4.15039-4.15039h-36.9629c-2.49023 0-4.15039 1.70898-4.15039 4.15039 0 2.39258 1.66016 4.00391 4.15039 4.00391Z"/>
  </g>
  <g transform="matrix(0.2 0 0 0.2 304.924 1933)">
   <path d="m74.8535 28.3203c35.1074 0 63.623-28.4668 63.623-63.5742s-28.5156-63.623-63.623-63.623-63.5742 28.5156-63.5742 63.623 28.4668 63.5742 63.5742 63.5742Zm0-9.08203c-30.127 0-54.4922-24.3652-54.4922-54.4922s24.3652-54.4922 54.4922-54.4922 54.4922 24.3652 54.4922 54.4922-24.3652 54.4922-54.4922 54.4922Zm4.44336-30.3223v-48.4863c0-2.73438-1.85547-4.63867-4.54102-4.63867-2.58789 0-4.44336 1.9043-4.44336 4.63867v48.4863c0 2.68555 1.85547 4.58984 4.44336 4.58984 2.68555 0 4.54102-1.85547 4.54102-4.58984Zm-28.7109-19.7754h48.4863c2.68555 0 4.58984-1.80664 4.58984-4.39453 0-2.73438-1.85547-4.58984-4.58984-4.58984h-48.4863c-2.73438 0-4.58984 1.85547-4.58984 4.58984 0 2.58789 1.85547 4.39453 4.58984 4.39453Z"/>
  </g>
  <text style="stroke:none;fill:black;font-family:sans-serif;font-size:13;font-weight:bold;" transform="matrix(1 0 0 1 263 1953)">Design Variations</text>
  <text style="stroke:none;fill:black;font-family:sans-serif;font-size:13;" transform="matrix(1 0 0 1 263 1971)">Symbols are supported in up to nine weights and three scales.</text>
  <text style="stroke:none;fill:black;font-family:sans-serif;font-size:13;" transform="matrix(1 0 0 1 263 1989)">For optimal layout with text and other symbols, vertically align</text>
  <text style="stroke:none;fill:black;font-family:sans-serif;font-size:13;" transform="matrix(1 0 0 1 263 2007)">symbols with the adjacent text.</text>
  <line style="fill:none;stroke:#00AEEF;stroke-width:0.5;opacity:1.0;" x1="776" x2="776" y1="1919" y2="1933"/>
  <g transform="matrix(0.2 0 0 0.2 776 1933)">
   <path d="m16.5527 0.78125c2.58789 0 3.85742-0.976562 4.78516-3.71094l20.5566-57.5195h0.244141l20.6055 57.5195c0.927734 2.73438 2.19727 3.71094 4.73633 3.71094 2.58789 0 4.24805-1.5625 4.24805-4.00391 0-0.830078-0.146484-1.61133-0.537109-2.63672l-22.9004-60.9863c-1.12305-2.97852-3.125-4.49219-6.25-4.49219-3.02734 0-5.07812 1.46484-6.15234 4.44336l-22.9004 61.084c-0.390625 1.02539-0.537109 1.80664-0.537109 2.63672 0 2.44141 1.5625 3.95508 4.10156 3.95508Zm10.2051-20.9473h30.6641c2.00195 0 3.66211-1.66016 3.66211-3.66211 0-2.05078-1.66016-3.66211-3.66211-3.66211h-30.6641c-2.00195 0-3.66211 1.61133-3.66211 3.66211 0 2.00195 1.66016 3.66211 3.66211 3.66211Z"/>
  </g>
  <line style="fill:none;stroke:#00AEEF;stroke-width:0.5;opacity:1.0;" x1="792.836" x2="792.836" y1="1919" y2="1933"/>
  <text style="stroke:none;fill:black;font-family:sans-serif;font-size:13;font-weight:bold;" transform="matrix(1 0 0 1 776 1953)">Margins</text>
  <text style="stroke:none;fill:black;font-family:sans-serif;font-size:13;" transform="matrix(1 0 0 1 776 1971)">Leading and trailing margins on the left and right side of each symbol</text>
  <text style="stroke:none;fill:black;font-family:sans-serif;font-size:13;" transform="matrix(1 0 0 1 776 1989)">can be adjusted by modifying the x-location of the margin guidelines.</text>
  <text style="stroke:none;fill:black;font-family:sans-serif;font-size:13;" transform="matrix(1 0 0 1 776 2007)">Modifications are automatically applied proportionally to all</text>
  <text style="stroke:none;fill:black;font-family:sans-serif;font-size:13;" transform="matrix(1 0 0 1 776 2025)">scales and weights.</text>
  <g transform="matrix(0.2 0 0 0.2 1289 1933)">
   <path d="m14.209 13.1348 7.86133 7.86133c4.29688 4.39453 9.32617 4.10156 13.8672-1.02539l60.6934-68.2129-4.88281-4.88281-60.2539 67.6758c-1.80664 1.95312-3.4668 2.44141-5.81055 0.0976562l-5.17578-5.12695c-2.29492-2.29492-1.80664-3.95508 0.195312-5.81055l67.4805-62.1582-4.88281-4.83398-68.0664 62.5977c-4.98047 4.58984-5.32227 9.47266-1.02539 13.8184Zm44.873-97.4609c-2.05078 2.00195-2.24609 4.88281-1.07422 6.78711 1.12305 1.80664 3.4668 3.02734 6.5918 2.24609 5.85938-1.66016 12.5977-2.39258 18.8965 0.927734l-2.68555 7.12891c-1.61133 4.00391-0.732422 6.88477 1.70898 9.42383l10.2539 10.3027c2.34375 2.39258 4.54102 2.44141 7.08008 1.95312l4.44336-0.732422 2.58789 2.53906-0.195312 2.24609c-0.0976562 2.29492 0.537109 4.29688 2.7832 6.49414l3.36914 3.32031c2.29492 2.29492 5.51758 2.49023 7.8125 0.195312l12.9883-13.0371c2.29492-2.34375 2.14844-5.37109-0.195312-7.66602l-3.41797-3.41797c-2.19727-2.19727-4.05273-3.02734-6.34766-2.88086l-2.34375 0.244141-2.44141-2.44141 1.02539-4.6875c0.634766-2.73438-0.244141-4.98047-2.88086-7.61719l-11.2793-11.1816c-12.9395-12.8418-35.5957-11.0352-46.6797-0.146484Zm7.08008 2.05078c8.78906-6.39648 25.9766-5.66406 33.6914 1.95312l12.3047 12.207c1.02539 1.02539 1.2207 1.80664 0.927734 3.32031l-1.46484 6.64062 6.73828 6.68945 4.39453-0.244141c1.12305-0.0488281 1.51367 0.0488281 2.34375 0.878906l2.53906 2.49023-10.8398 10.8398-2.49023-2.49023c-0.830078-0.878906-0.976562-1.2207-0.927734-2.39258l0.292969-4.3457-6.68945-6.73828-6.83594 1.17188c-1.41602 0.292969-2.05078 0.195312-3.17383-0.878906l-8.93555-8.88672c-1.07422-1.02539-1.17188-1.70898-0.488281-3.36914l4.58984-11.4746c-6.10352-6.34766-17.041-7.51953-25.5859-4.58984-0.683594 0.244141-0.927734-0.390625-0.390625-0.78125Z"/>
  </g>
  <text style="stroke:none;fill:black;font-family:sans-serif;font-size:13;font-weight:bold;" transform="matrix(1 0 0 1 1289 1953)">Exporting</text>
  <text style="stroke:none;fill:black;font-family:sans-serif;font-size:13;" transform="matrix(1 0 0 1 1289 1971)">Symbols should be outlined when exporting to ensure the</text>
  <text style="stroke:none;fill:black;font-family:sans-serif;font-size:13;" transform="matrix(1 0 0 1 1289 1989)">design is preserved when submitting to Xcode.</text>
  <text id="template-version" style="stroke:none;fill:black;font-family:sans-serif;font-size:13;text-anchor:end;" transform="matrix(1 0 0 1 3036 1933)">Template v.7.0</text>
  <text style="stroke:none;fill:black;font-family:sans-serif;font-size:13;text-anchor:end;" transform="matrix(1 0 0 1 3036 1951)">Requires Xcode 26 or greater</text>
  <text id="descriptive-name" style="stroke:none;fill:black;font-family:sans-serif;font-size:13;text-anchor:end;" transform="matrix(1 0 0 1 3036 1969)">Generated from antenna.radiowaves.left.and.right</text>
  <text style="stroke:none;fill:black;font-family:sans-serif;font-size:13;text-anchor:end;" transform="matrix(1 0 0 1 3036 1987)">Typeset at 100.0 points</text>
  <text style="stroke:none;fill:black;font-family:sans-serif;font-size:13;" transform="matrix(1 0 0 1 263 726)">Small</text>
  <text style="stroke:none;fill:black;font-family:sans-serif;font-size:13;" transform="matrix(1 0 0 1 263 1156)">Medium</text>
  <text style="stroke:none;fill:black;font-family:sans-serif;font-size:13;" transform="matrix(1 0 0 1 263 1586)">Large</text>
 </g>
 <g id="Guides">
  <g id="H-reference" style="fill:#27AAE1;stroke:none;" transform="matrix(1 0 0 1 339 696)">
   <path d="M0.993654 0L3.63775 0L29.3281-67.1323L30.0303-67.1323L30.0303-70.459L28.1226-70.459ZM11.6885-24.4799L46.9815-24.4799L46.2315-26.7285L12.4385-26.7285ZM55.1196 0L57.7637 0L30.6382-70.459L29.4326-70.459L29.4326-67.1323Z"/>
  </g>
  <line id="Baseline-S" style="fill:none;stroke:#27AAE1;opacity:1;stroke-width:0.5;" x1="263" x2="3036" y1="696" y2="696"/>
  <line id="Capline-S" style="fill:none;stroke:#27AAE1;opacity:1;stroke-width:0.5;" x1="263" x2="3036" y1="625.541" y2="625.541"/>
  <g id="H-reference" style="fill:#27AAE1;stroke:none;" transform="matrix(1 0 0 1 339 1126)">
   <path d="M0.993654 0L3.63775 0L29.3281-67.1323L30.0303-67.1323L30.0303-70.459L28.1226-70.459ZM11.6885-24.4799L46.9815-24.4799L46.2315-26.7285L12.4385-26.7285ZM55.1196 0L57.7637 0L30.6382-70.459L29.4326-70.459L29.4326-67.1323Z"/>
  </g>
  <line id="Baseline-M" style="fill:none;stroke:#27AAE1;opacity:1;stroke-width:0.5;" x1="263" x2="3036" y1="1126" y2="1126"/>
  <line id="Capline-M" style="fill:none;stroke:#27AAE1;opacity:1;stroke-width:0.5;" x1="263" x2="3036" y1="1055.54" y2="1055.54"/>
  <g id="H-reference" style="fill:#27AAE1;stroke:none;" transform="matrix(1 0 0 1 339 1556)">
   <path d="M0.993654 0L3.63775 0L29.3281-67.1323L30.0303-67.1323L30.0303-70.459L28.1226-70.459ZM11.6885-24.4799L46.9815-24.4799L46.2315-26.7285L12.4385-26.7285ZM55.1196 0L57.7637 0L30.6382-70.459L29.4326-70.459L29.4326-67.1323Z"/>
  </g>
  <line id="Baseline-L" style="fill:none;stroke:#27AAE1;opacity:1;stroke-width:0.5;" x1="263" x2="3036" y1="1556" y2="1556"/>
  <line id="Capline-L" style="fill:none;stroke:#27AAE1;opacity:1;stroke-width:0.5;" x1="263" x2="3036" y1="1485.54" y2="1485.54"/>
  <line id="right-margin-Black-S" style="fill:none;stroke:#00AEEF;stroke-width:0.5;opacity:1.0;" x1="2987.55" x2="2987.55" y1="600.785" y2="720.121"/>
  <line id="left-margin-Black-S" style="fill:none;stroke:#00AEEF;stroke-width:0.5;opacity:1.0;" x1="2879.25" x2="2879.25" y1="600.785" y2="720.121"/>
  <line id="right-margin-Regular-S" style="fill:none;stroke:#00AEEF;stroke-width:0.5;opacity:1.0;" x1="1498.31" x2="1498.31" y1="600.785" y2="720.121"/>
  <line id="left-margin-Regular-S" style="fill:none;stroke:#00AEEF;stroke-width:0.5;opacity:1.0;" x1="1401.38" x2="1401.38" y1="600.785" y2="720.121"/>
  <line id="right-margin-Ultralight-S" style="fill:none;stroke:#00AEEF;stroke-width:0.5;opacity:1.0;" x1="602.633" x2="602.633" y1="600.785" y2="720.121"/>
  <line id="left-margin-Ultralight-S" style="fill:none;stroke:#00AEEF;stroke-width:0.5;opacity:1.0;" x1="516.789" x2="516.789" y1="600.785" y2="720.121"/>
 </g>
 <g id="Symbols">
  <g id="Black-S" transform="matrix(1 0 0 1 2879.25 696)">
   <path class="monochrome-0 multicolor-0:systemGreenColor hierarchical-0:secondary SFSymbolsPreviewWireframe" d="M6.83594-43.3105C6.83594-33.2031 9.66797-23.6328 15.8203-17.4805C18.75-14.5508 22.0215-14.9902 23.877-17.334C25.5371-19.4336 25-21.9727 23.1934-23.9746C18.9453-28.6621 16.5527-35.6934 16.5527-43.3105C16.5527-50.8789 18.8477-57.9102 23.1934-62.5977C25.0488-64.5996 25.5859-67.1387 23.877-69.2383C21.9727-71.5332 18.6523-72.0703 15.8203-69.0918C10.2539-63.2812 6.83594-53.3203 6.83594-43.3105ZM84.4238-17.334C86.2793-14.9902 89.5508-14.5508 92.4805-17.4805C98.6328-23.6328 101.465-33.2031 101.465-43.3105C101.465-53.3203 98.0469-63.2812 92.4805-69.0918C89.6484-72.0703 86.3281-71.5332 84.4238-69.2383C82.7148-67.1387 83.252-64.5996 85.1074-62.5977C89.4531-57.9102 91.748-50.8789 91.748-43.3105C91.748-35.6934 89.3555-28.6621 85.1074-23.9746C83.3008-21.9727 82.7637-19.4336 84.4238-17.334Z" data-clipstroke-keyframes="0 8 0 0.5008087 0.99955195 0 1 0.6570182 0.7859921 0 1 0.21498357 0.34564796 8 0 1.7841163 1.2853727 0 1 1.4989328 1.6279068 0 1 1.9392767 1.0699415"/>
   <path class="monochrome-1 multicolor-1:systemGreenColor hierarchical-1:secondary SFSymbolsPreviewWireframe" d="M24.7559-43.3105C24.7559-37.4023 26.2695-31.8359 29.3457-28.7109C31.9336-26.0742 35.5469-26.2207 37.2559-28.5645C38.7207-30.6152 38.3301-33.0566 36.8652-35.1074C35.6445-36.8164 34.4727-40.5273 34.4727-43.3105C34.4727-46.0938 35.6445-49.8047 36.8652-51.5625C38.2812-53.6133 38.7207-56.0059 37.2559-58.0566C35.5469-60.4004 31.9336-60.5957 29.3457-57.959C26.2695-54.7852 24.7559-49.2188 24.7559-43.3105ZM71.0449-28.5645C72.7539-26.2207 76.3672-26.0742 78.9551-28.7109C82.0312-31.8359 83.5449-37.4023 83.5449-43.3105C83.5449-49.2188 82.0312-54.7852 78.9551-57.959C76.3672-60.5957 72.7539-60.4004 71.0449-58.0566C69.5801-56.0059 70.0195-53.6133 71.4355-51.5625C72.6562-49.8047 73.8281-46.0938 73.8281-43.3105C73.8281-40.5273 72.6562-36.8164 71.4355-35.1074C69.9707-33.0566 69.5801-30.6152 71.0449-28.5645Z" data-clipstroke-keyframes="0 8 0 0.50064826 0.99828625 0 1 0.59808755 0.8044822 0 1 0.19500029 0.40198398 8 0 1.3066115 1.8051062 0 1 1.5012722 1.7076662 0 1 1.9037697 1.110754"/>
   <path class="monochrome-2 multicolor-2:systemGreenColor hierarchical-2:primary SFSymbolsPreviewWireframe" d="M44.2871-43.3105C44.2871-39.7461 46.1914-36.6211 49.0234-34.8633L49.0234-2.88086C49.0234 0.537109 51.1719 2.92969 54.1992 2.92969C57.373 2.92969 59.375 0.683594 59.375-2.88086L59.375-34.8633C62.207-36.6211 64.1113-39.7461 64.1113-43.3105C64.1113-48.7793 59.668-53.2227 54.1992-53.2227C48.7305-53.2227 44.2871-48.7793 44.2871-43.3105Z"/>
  </g>
  <g id="Regular-S" transform="matrix(1 0 0 1 1401.38 696)">
   <path class="monochrome-0 multicolor-0:systemGreenColor hierarchical-0:secondary SFSymbolsPreviewWireframe" d="M6.83594-43.7988C6.83594-33.7402 10.3516-24.4141 16.748-17.3828C18.457-15.5273 20.8984-15.5273 22.3145-17.1387C23.6816-18.75 23.291-20.8008 21.6797-22.6074C16.6992-28.2715 13.9648-35.6934 13.9648-43.7988C13.9648-51.8555 16.6992-59.2773 21.6797-64.9414C23.291-66.7969 23.6816-68.7988 22.3145-70.4102C20.8984-72.0215 18.457-72.0215 16.748-70.166C10.3516-63.1348 6.83594-53.8086 6.83594-43.7988ZM74.6094-17.1387C76.0254-15.5273 78.4668-15.5273 80.1758-17.3828C86.5234-24.4141 90.0879-33.7402 90.0879-43.7988C90.0879-53.8086 86.5234-63.1348 80.1758-70.166C78.4668-72.0215 76.0254-72.0215 74.6094-70.4102C73.1934-68.7988 73.6328-66.7969 75.2441-64.9414C80.2246-59.2773 82.959-51.8555 82.959-43.7988C82.959-35.6934 80.2246-28.2715 75.2441-22.6074C73.6328-20.8008 73.1934-18.75 74.6094-17.1387Z" data-clipstroke-keyframes="0 8 0 0.5007502 0.9995438 0 1 0.6833126 0.775314 0 1 0.22505619 0.31713608 8 0 1.7729931 1.2741995 0 1 1.4983296 1.590457 0 1 1.9565811 1.0487866"/>
   <path class="monochrome-1 multicolor-1:systemGreenColor hierarchical-1:secondary SFSymbolsPreviewWireframe" d="M23.2422-43.7988C23.2422-38.0859 25.1465-32.7637 28.418-28.4668C29.9805-26.4648 32.6172-26.5137 34.082-28.1738C35.4492-29.7363 34.8633-31.6895 33.4961-33.5938C31.4453-36.4258 30.3711-39.9414 30.3711-43.7988C30.3711-47.6074 31.4453-51.0742 33.4961-53.9551C34.8633-55.8594 35.4492-57.8125 34.082-59.375C32.6172-61.0352 29.9805-61.084 28.418-59.082C25.1465-54.7852 23.2422-49.4629 23.2422-43.7988ZM62.8418-28.1738C64.3066-26.5137 66.9434-26.4648 68.457-28.4668C71.7773-32.7637 73.6816-38.0859 73.6816-43.7988C73.6816-49.4629 71.7773-54.7852 68.457-59.082C66.9434-61.084 64.3066-61.0352 62.8418-59.375C61.4258-57.8125 62.0605-55.8594 63.4277-53.9551C65.4785-51.0742 66.5527-47.6074 66.5527-43.7988C66.5527-39.9414 65.4785-36.4258 63.4277-33.5938C62.0605-31.6895 61.4258-29.7363 62.8418-28.1738Z" data-clipstroke-keyframes="0 8 0 0.5011816 0.9991646 0 1 0.6480441 0.79248977 0 1 0.20811152 0.35255718 8 0 1.2899079 1.7878911 0 1 1.496861 1.6397042 0 1 1.9378397 1.0806832"/>
   <path class="monochrome-2 multicolor-2:systemGreenColor hierarchical-2:primary SFSymbolsPreviewWireframe" d="M41.1133-43.7988C41.1133-40.8691 42.6758-38.4277 45.1172-37.207L45.1172-3.36914C45.1172-1.17188 46.4844 0.390625 48.4375 0.390625C50.5371 0.390625 51.8066-1.12305 51.8066-3.36914L51.8066-37.207C54.1504-38.4277 55.8105-40.918 55.8105-43.7988C55.8105-47.9004 52.5879-51.1719 48.4375-51.1719C44.3359-51.1719 41.1133-47.9004 41.1133-43.7988Z"/>
  </g>
  <g id="Ultralight-S" transform="matrix(1 0 0 1 516.789 696)">
   <path class="monochrome-0 multicolor-0:systemGreenColor hierarchical-0:secondary SFSymbolsPreviewWireframe" d="M6.83594-44.2075C6.83594-34.8301 10.624-26.3213 16.8389-20.062C17.3218-19.5688 18.1284-19.5688 18.5454-20.0449C18.959-20.521 18.7954-21.2095 18.3194-21.6992C12.5215-27.5449 9.06059-35.3755 9.06059-44.2075C9.06059-53.0815 12.5215-60.9121 18.3194-66.7578C18.7954-67.2056 18.959-67.936 18.5454-68.3667C18.1284-68.8428 17.3218-68.8428 16.8389-68.3496C10.624-62.1358 6.83594-53.627 6.83594-44.2075ZM67.253-20.0449C67.7154-19.5688 68.4766-19.5688 69.005-20.062C75.2164-26.3213 79.0079-34.8301 79.0079-44.2075C79.0079-53.627 75.2164-62.1358 69.005-68.3496C68.4766-68.8428 67.7154-68.8428 67.253-68.3667C66.8814-67.936 67.0484-67.2056 67.4791-66.7578C73.3223-60.9121 76.7833-53.0815 76.7833-44.2075C76.7833-35.3755 73.3223-27.5449 67.4791-21.6992C67.0484-21.2095 66.8814-20.521 67.253-20.0449Z" data-clipstroke-keyframes="0 8 0 0.5004399 0.9995033 0 1 0.72573495 0.7582866 0 1 0.24168257 0.27455157 8 0 1.758307 1.2592478 0 1 1.5003352 1.5339012 0 1 1.9832821 1.0171986"/>
   <path class="monochrome-1 multicolor-1:systemGreenColor hierarchical-1:secondary SFSymbolsPreviewWireframe" d="M21.5166-44.2075C21.5166-38.9033 23.5117-34.0806 27.0103-30.5102C27.5283-30.0068 28.3033-30.0102 28.7237-30.4897C29.1373-30.9624 29.0054-31.644 28.5464-32.0952C25.2696-35.0181 23.7413-39.4873 23.7413-44.2075C23.7413-48.9697 25.6329-53.0268 28.5464-56.3164C28.96-56.813 29.1373-57.4946 28.7237-57.9219C28.3033-58.4468 27.5283-58.4502 27.0103-57.9014C23.5117-54.3765 21.5166-49.5083 21.5166-44.2075ZM57.0748-30.4897C57.5406-30.0102 58.3155-30.0068 58.7847-30.5102C62.2867-34.0806 64.3272-38.9033 64.3272-44.2075C64.3272-49.5083 62.2867-54.3765 58.7847-57.9014C58.3155-58.4502 57.5406-58.4468 57.0748-57.9219C56.7032-57.4946 56.8838-56.813 57.2974-56.3164C60.1656-53.0268 62.1026-48.9697 62.1026-44.2075C62.1026-39.4873 60.5743-35.0181 57.2974-32.0952C56.793-31.644 56.7032-30.9624 57.0748-30.4897Z" data-clipstroke-keyframes="0 8 0 0.50146365 0.99903655 0 1 0.7083118 0.76457596 0 1 0.23539162 0.29311943 8 0 1.2657497 1.7631519 0 1 1.500411 1.5545983 0 1 1.9732122 1.0291958"/>
   <path class="monochrome-2 multicolor-2:systemGreenColor hierarchical-2:primary SFSymbolsPreviewWireframe" d="M38.2525-44.2075C38.2525-42.0044 39.7696-40.1533 41.8023-39.6592L41.8023-2.77881C41.8023-2.03466 42.2613-1.562 42.8975-1.562C43.5894-1.562 43.9962-2.03124 43.9962-2.77881L43.9962-39.6592C46.0674-40.1533 47.5914-42.0078 47.5914-44.2075C47.5914-46.8106 45.5494-48.9014 42.8975-48.9014C40.2945-48.9014 38.2525-46.8106 38.2525-44.2075Z"/>
  </g>
 </g>
</svg>
