<?xml version="1.0" encoding="UTF-8"?>
<!--Generator: Apple Native CoreSVG 341-->
<!DOCTYPE svg
PUBLIC "-//W3C//DTD SVG 1.1//EN"
       "http://www.w3.org/Graphics/SVG/1.1/DTD/svg11.dtd">
<svg version="1.1" xmlns="http://www.w3.org/2000/svg" xmlns:xlink="http://www.w3.org/1999/xlink" viewBox="0 0 3300 2200">
 <!--glyph: "1012CF", point size: 100.0, font version: "21.1d1e1", template writer version: "138.0.0"-->
 <style>.defaults {-sfsymbols-draw-reverses-motion-groups:true}

.monochrome-0 {-sfsymbols-motion-group:1;-sfsymbols-layer-tags:carseat.right.and.heat.waves}
.monochrome-1 {-sfsymbols-clear-behind:true;-sfsymbols-motion-group:0;-sfsymbols-layer-tags:carseat.right.and.heat.waves}

.multicolor-0:tintColor {-sfsymbols-motion-group:1;-sfsymbols-layer-tags:carseat.right.and.heat.waves}
.multicolor-1:tintColor {-sfsymbols-clear-behind:true;-sfsymbols-motion-group:0;-sfsymbols-layer-tags:carseat.right.and.heat.waves}

.hierarchical-0:primary {-sfsymbols-motion-group:1;-sfsymbols-layer-tags:carseat.right.and.heat.waves}
.hierarchical-1:secondary {-sfsymbols-clear-behind:true;-sfsymbols-motion-group:0;-sfsymbols-layer-tags:carseat.right.and.heat.waves}

.SFSymbolsPreviewWireframe {fill:none;opacity:1.0;stroke:black;stroke-width:0.5}
</style>
 <g id="Notes">
  <rect height="2200" id="artboard" style="fill:white;opacity:1" width="3300" x="0" y="0"/>
  <line style="fill:none;stroke:black;opacity:1;stroke-width:0.5;" x1="263" x2="3036" y1="292" y2="292"/>
  <text style="stroke:none;fill:black;font-family:sans-serif;font-size:13;font-weight:bold;" transform="matrix(1 0 0 1 263 322)">Weight/Scale Variations</text>
  <text style="stroke:none;fill:black;font-family:sans-serif;font-size:13;text-anchor:middle;" transform="matrix(1 0 0 1 559.711 322)">Ultralight</text>
  <text style="stroke:none;fill:black;font-family:sans-serif;font-size:13;text-anchor:middle;" transform="matrix(1 0 0 1 856.422 322)">Thin</text>
  <text style="stroke:none;fill:black;font-family:sans-serif;font-size:13;text-anchor:middle;" transform="matrix(1 0 0 1 1153.13 322)">Light</text>
  <text style="stroke:none;fill:black;font-family:sans-serif;font-size:13;text-anchor:middle;" transform="matrix(1 0 0 1 1449.84 322)">Regular</text>
  <text style="stroke:none;fill:black;font-family:sans-serif;font-size:13;text-anchor:middle;" transform="matrix(1 0 0 1 1746.56 322)">Medium</text>
  <text style="stroke:none;fill:black;font-family:sans-serif;font-size:13;text-anchor:middle;" transform="matrix(1 0 0 1 2043.27 322)">Semibold</text>
  <text style="stroke:none;fill:black;font-family:sans-serif;font-size:13;text-anchor:middle;" transform="matrix(1 0 0 1 2339.98 322)">Bold</text>
  <text style="stroke:none;fill:black;font-family:sans-serif;font-size:13;text-anchor:middle;" transform="matrix(1 0 0 1 2636.69 322)">Heavy</text>
  <text style="stroke:none;fill:black;font-family:sans-serif;font-size:13;text-anchor:middle;" transform="matrix(1 0 0 1 2933.4 322)">Black</text>
  <line style="fill:none;stroke:black;opacity:1;stroke-width:0.5;" x1="263" x2="3036" y1="1903" y2="1903"/>
  <g transform="matrix(0.2 0 0 0.2 263 1933)">
   <path d="m46.2402 4.15039c21.7773 0 39.4531-17.627 39.4531-39.4043s-17.6758-39.4043-39.4531-39.4043c-21.7285 0-39.4043 17.627-39.4043 39.4043s17.6758 39.4043 39.4043 39.4043Zm0-7.42188c-17.6758 0-31.9336-14.3066-31.9336-31.9824s14.2578-31.9824 31.9336-31.9824 31.9824 14.3066 31.9824 31.9824-14.3066 31.9824-31.9824 31.9824Zm3.61328-17.7734v-28.4668c0-2.24609-1.46484-3.75977-3.71094-3.75977-2.14844 0-3.61328 1.51367-3.61328 3.75977v28.4668c0 2.19727 1.46484 3.71094 3.61328 3.71094 2.24609 0 3.71094-1.51367 3.71094-3.71094Zm-17.8223-10.5957h28.418c2.19727 0 3.71094-1.46484 3.71094-3.61328 0-2.19727-1.51367-3.71094-3.71094-3.71094h-28.418c-2.24609 0-3.75977 1.51367-3.75977 3.71094 0 2.14844 1.51367 3.61328 3.75977 3.61328Z"/>
  </g>
  <g transform="matrix(0.2 0 0 0.2 281.506 1933)">
   <path d="m58.5449 14.5508c27.4902 0 49.8047-22.3145 49.8047-49.8047s-22.3145-49.8047-49.8047-49.8047-49.8047 22.3145-49.8047 49.8047 22.3145 49.8047 49.8047 49.8047Zm0-8.30078c-22.9492 0-41.5039-18.5547-41.5039-41.5039s18.5547-41.5039 41.5039-41.5039 41.5039 18.5547 41.5039 41.5039-18.5547 41.5039-41.5039 41.5039Zm4.05273-23.0957v-36.9141c0-2.49023-1.70898-4.19922-4.15039-4.19922-2.39258 0-4.05273 1.70898-4.05273 4.19922v36.9141c0 2.44141 1.66016 4.15039 4.05273 4.15039 2.44141 0 4.15039-1.66016 4.15039-4.15039Zm-22.5586-14.4043h36.9629c2.44141 0 4.15039-1.61133 4.15039-4.00391 0-2.44141-1.70898-4.15039-4.15039-4.15039h-36.9629c-2.49023 0-4.15039 1.70898-4.15039 4.15039 0 2.39258 1.66016 4.00391 4.15039 4.00391Z"/>
  </g>
  <g transform="matrix(0.2 0 0 0.2 304.924 1933)">
   <path d="m74.8535 28.3203c35.1074 0 63.623-28.4668 63.623-63.5742s-28.5156-63.623-63.623-63.623-63.5742 28.5156-63.5742 63.623 28.4668 63.5742 63.5742 63.5742Zm0-9.08203c-30.127 0-54.4922-24.3652-54.4922-54.4922s24.3652-54.4922 54.4922-54.4922 54.4922 24.3652 54.4922 54.4922-24.3652 54.4922-54.4922 54.4922Zm4.44336-30.3223v-48.4863c0-2.73438-1.85547-4.63867-4.54102-4.63867-2.58789 0-4.44336 1.9043-4.44336 4.63867v48.4863c0 2.68555 1.85547 4.58984 4.44336 4.58984 2.68555 0 4.54102-1.85547 4.54102-4.58984Zm-28.7109-19.7754h48.4863c2.68555 0 4.58984-1.80664 4.58984-4.39453 0-2.73438-1.85547-4.58984-4.58984-4.58984h-48.4863c-2.73438 0-4.58984 1.85547-4.58984 4.58984 0 2.58789 1.85547 4.39453 4.58984 4.39453Z"/>
  </g>
  <text style="stroke:none;fill:black;font-family:sans-serif;font-size:13;font-weight:bold;" transform="matrix(1 0 0 1 263 1953)">Design Variations</text>
  <text style="stroke:none;fill:black;font-family:sans-serif;font-size:13;" transform="matrix(1 0 0 1 263 1971)">Symbols are supported in up to nine weights and three scales.</text>
  <text style="stroke:none;fill:black;font-family:sans-serif;font-size:13;" transform="matrix(1 0 0 1 263 1989)">For optimal layout with text and other symbols, vertically align</text>
  <text style="stroke:none;fill:black;font-family:sans-serif;font-size:13;" transform="matrix(1 0 0 1 263 2007)">symbols with the adjacent text.</text>
  <line style="fill:none;stroke:#00AEEF;stroke-width:0.5;opacity:1.0;" x1="776" x2="776" y1="1919" y2="1933"/>
  <g transform="matrix(0.2 0 0 0.2 776 1933)">
   <path d="m16.5527 0.78125c2.58789 0 3.85742-0.976562 4.78516-3.71094l20.5566-57.5195h0.244141l20.6055 57.5195c0.927734 2.73438 2.19727 3.71094 4.73633 3.71094 2.58789 0 4.24805-1.5625 4.24805-4.00391 0-0.830078-0.146484-1.61133-0.537109-2.63672l-22.9004-60.9863c-1.12305-2.97852-3.125-4.49219-6.25-4.49219-3.02734 0-5.07812 1.46484-6.15234 4.44336l-22.9004 61.084c-0.390625 1.02539-0.537109 1.80664-0.537109 2.63672 0 2.44141 1.5625 3.95508 4.10156 3.95508Zm10.2051-20.9473h30.6641c2.00195 0 3.66211-1.66016 3.66211-3.66211 0-2.05078-1.66016-3.66211-3.66211-3.66211h-30.6641c-2.00195 0-3.66211 1.61133-3.66211 3.66211 0 2.00195 1.66016 3.66211 3.66211 3.66211Z"/>
  </g>
  <line style="fill:none;stroke:#00AEEF;stroke-width:0.5;opacity:1.0;" x1="792.836" x2="792.836" y1="1919" y2="1933"/>
  <text style="stroke:none;fill:black;font-family:sans-serif;font-size:13;font-weight:bold;" transform="matrix(1 0 0 1 776 1953)">Margins</text>
  <text style="stroke:none;fill:black;font-family:sans-serif;font-size:13;" transform="matrix(1 0 0 1 776 1971)">Leading and trailing margins on the left and right side of each symbol</text>
  <text style="stroke:none;fill:black;font-family:sans-serif;font-size:13;" transform="matrix(1 0 0 1 776 1989)">can be adjusted by modifying the x-location of the margin guidelines.</text>
  <text style="stroke:none;fill:black;font-family:sans-serif;font-size:13;" transform="matrix(1 0 0 1 776 2007)">Modifications are automatically applied proportionally to all</text>
  <text style="stroke:none;fill:black;font-family:sans-serif;font-size:13;" transform="matrix(1 0 0 1 776 2025)">scales and weights.</text>
  <g transform="matrix(0.2 0 0 0.2 1289 1933)">
   <path d="m14.209 13.1348 7.86133 7.86133c4.29688 4.39453 9.32617 4.10156 13.8672-1.02539l60.6934-68.2129-4.88281-4.88281-60.2539 67.6758c-1.80664 1.95312-3.4668 2.44141-5.81055 0.0976562l-5.17578-5.12695c-2.29492-2.29492-1.80664-3.95508 0.195312-5.81055l67.4805-62.1582-4.88281-4.83398-68.0664 62.5977c-4.98047 4.58984-5.32227 9.47266-1.02539 13.8184Zm44.873-97.4609c-2.05078 2.00195-2.24609 4.88281-1.07422 6.78711 1.12305 1.80664 3.4668 3.02734 6.5918 2.24609 5.85938-1.66016 12.5977-2.39258 18.8965 0.927734l-2.68555 7.12891c-1.61133 4.00391-0.732422 6.88477 1.70898 9.42383l10.2539 10.3027c2.34375 2.39258 4.54102 2.44141 7.08008 1.95312l4.44336-0.732422 2.58789 2.53906-0.195312 2.24609c-0.0976562 2.29492 0.537109 4.29688 2.7832 6.49414l3.36914 3.32031c2.29492 2.29492 5.51758 2.49023 7.8125 0.195312l12.9883-13.0371c2.29492-2.34375 2.14844-5.37109-0.195312-7.66602l-3.41797-3.41797c-2.19727-2.19727-4.05273-3.02734-6.34766-2.88086l-2.34375 0.244141-2.44141-2.44141 1.02539-4.6875c0.634766-2.73438-0.244141-4.98047-2.88086-7.61719l-11.2793-11.1816c-12.9395-12.8418-35.5957-11.0352-46.6797-0.146484Zm7.08008 2.05078c8.78906-6.39648 25.9766-5.66406 33.6914 1.95312l12.3047 12.207c1.02539 1.02539 1.2207 1.80664 0.927734 3.32031l-1.46484 6.64062 6.73828 6.68945 4.39453-0.244141c1.12305-0.0488281 1.51367 0.0488281 2.34375 0.878906l2.53906 2.49023-10.8398 10.8398-2.49023-2.49023c-0.830078-0.878906-0.976562-1.2207-0.927734-2.39258l0.292969-4.3457-6.68945-6.73828-6.83594 1.17188c-1.41602 0.292969-2.05078 0.195312-3.17383-0.878906l-8.93555-8.88672c-1.07422-1.02539-1.17188-1.70898-0.488281-3.36914l4.58984-11.4746c-6.10352-6.34766-17.041-7.51953-25.5859-4.58984-0.683594 0.244141-0.927734-0.390625-0.390625-0.78125Z"/>
  </g>
  <text style="stroke:none;fill:black;font-family:sans-serif;font-size:13;font-weight:bold;" transform="matrix(1 0 0 1 1289 1953)">Exporting</text>
  <text style="stroke:none;fill:black;font-family:sans-serif;font-size:13;" transform="matrix(1 0 0 1 1289 1971)">Symbols should be outlined when exporting to ensure the</text>
  <text style="stroke:none;fill:black;font-family:sans-serif;font-size:13;" transform="matrix(1 0 0 1 1289 1989)">design is preserved when submitting to Xcode.</text>
  <text id="template-version" style="stroke:none;fill:black;font-family:sans-serif;font-size:13;text-anchor:end;" transform="matrix(1 0 0 1 3036 1933)">Template v.7.0</text>
  <text style="stroke:none;fill:black;font-family:sans-serif;font-size:13;text-anchor:end;" transform="matrix(1 0 0 1 3036 1951)">Requires Xcode 26 or greater</text>
  <text id="descriptive-name" style="stroke:none;fill:black;font-family:sans-serif;font-size:13;text-anchor:end;" transform="matrix(1 0 0 1 3036 1969)">Generated from carseat.right.and.heat.waves</text>
  <text style="stroke:none;fill:black;font-family:sans-serif;font-size:13;text-anchor:end;" transform="matrix(1 0 0 1 3036 1987)">Typeset at 100.0 points</text>
  <text style="stroke:none;fill:black;font-family:sans-serif;font-size:13;" transform="matrix(1 0 0 1 263 726)">Small</text>
  <text style="stroke:none;fill:black;font-family:sans-serif;font-size:13;" transform="matrix(1 0 0 1 263 1156)">Medium</text>
  <text style="stroke:none;fill:black;font-family:sans-serif;font-size:13;" transform="matrix(1 0 0 1 263 1586)">Large</text>
 </g>
 <g id="Guides">
  <g id="H-reference" style="fill:#27AAE1;stroke:none;" transform="matrix(1 0 0 1 339 696)">
   <path d="M0.993654 0L3.63775 0L29.3281-67.1323L30.0303-67.1323L30.0303-70.459L28.1226-70.459ZM11.6885-24.4799L46.9815-24.4799L46.2315-26.7285L12.4385-26.7285ZM55.1196 0L57.7637 0L30.6382-70.459L29.4326-70.459L29.4326-67.1323Z"/>
  </g>
  <line id="Baseline-S" style="fill:none;stroke:#27AAE1;opacity:1;stroke-width:0.5;" x1="263" x2="3036" y1="696" y2="696"/>
  <line id="Capline-S" style="fill:none;stroke:#27AAE1;opacity:1;stroke-width:0.5;" x1="263" x2="3036" y1="625.541" y2="625.541"/>
  <g id="H-reference" style="fill:#27AAE1;stroke:none;" transform="matrix(1 0 0 1 339 1126)">
   <path d="M0.993654 0L3.63775 0L29.3281-67.1323L30.0303-67.1323L30.0303-70.459L28.1226-70.459ZM11.6885-24.4799L46.9815-24.4799L46.2315-26.7285L12.4385-26.7285ZM55.1196 0L57.7637 0L30.6382-70.459L29.4326-70.459L29.4326-67.1323Z"/>
  </g>
  <line id="Baseline-M" style="fill:none;stroke:#27AAE1;opacity:1;stroke-width:0.5;" x1="263" x2="3036" y1="1126" y2="1126"/>
  <line id="Capline-M" style="fill:none;stroke:#27AAE1;opacity:1;stroke-width:0.5;" x1="263" x2="3036" y1="1055.54" y2="1055.54"/>
  <g id="H-reference" style="fill:#27AAE1;stroke:none;" transform="matrix(1 0 0 1 339 1556)">
   <path d="M0.993654 0L3.63775 0L29.3281-67.1323L30.0303-67.1323L30.0303-70.459L28.1226-70.459ZM11.6885-24.4799L46.9815-24.4799L46.2315-26.7285L12.4385-26.7285ZM55.1196 0L57.7637 0L30.6382-70.459L29.4326-70.459L29.4326-67.1323Z"/>
  </g>
  <line id="Baseline-L" style="fill:none;stroke:#27AAE1;opacity:1;stroke-width:0.5;" x1="263" x2="3036" y1="1556" y2="1556"/>
  <line id="Capline-L" style="fill:none;stroke:#27AAE1;opacity:1;stroke-width:0.5;" x1="263" x2="3036" y1="1485.54" y2="1485.54"/>
  <line id="right-margin-Black-S" style="fill:none;stroke:#00AEEF;stroke-width:0.5;opacity:1.0;" x1="2991.85" x2="2991.85" y1="600.785" y2="720.121"/>
  <line id="left-margin-Black-S" style="fill:none;stroke:#00AEEF;stroke-width:0.5;opacity:1.0;" x1="2874.95" x2="2874.95" y1="600.785" y2="720.121"/>
  <line id="right-margin-Regular-S" style="fill:none;stroke:#00AEEF;stroke-width:0.5;opacity:1.0;" x1="1503.8" x2="1503.8" y1="600.785" y2="720.121"/>
  <line id="left-margin-Regular-S" style="fill:none;stroke:#00AEEF;stroke-width:0.5;opacity:1.0;" x1="1395.89" x2="1395.89" y1="600.785" y2="720.121"/>
  <line id="right-margin-Ultralight-S" style="fill:none;stroke:#00AEEF;stroke-width:0.5;opacity:1.0;" x1="608.785" x2="608.785" y1="600.785" y2="720.121"/>
  <line id="left-margin-Ultralight-S" style="fill:none;stroke:#00AEEF;stroke-width:0.5;opacity:1.0;" x1="510.638" x2="510.638" y1="600.785" y2="720.121"/>
 </g>
 <g id="Symbols">
  <g id="Black-S" transform="matrix(1 0 0 1 2874.95 696)">
   <path class="monochrome-0 multicolor-0:tintColor hierarchical-0:primary SFSymbolsPreviewWireframe" d="M106.299-9.22852C110.254-23.291 100.342-30.127 76.123-30.127C65.5762-30.127 55.127-29.2969 46.3867-27.6855L50.5859-20.9961C53.3691-39.9414 47.998-55.3223 36.0352-62.793L39.1602-52.2949C44.1406-65.5762 36.3281-80.5176 23.291-80.5176C13.3789-80.5176 8.00781-72.8516 10.3027-63.5742L25.7324-1.31836C27.5391 6.00586 32.4219 9.96094 39.6484 9.96094L88.4277 9.96094C97.998 9.96094 102.246 5.37109 106.299-9.22852ZM94.5801-12.5488C91.8945-2.83203 91.2598-2.24609 88.4277-2.24609L39.6484-2.24609C38.4766-2.24609 37.9883-2.7832 37.6465-4.19922L22.168-66.6504C21.9238-67.6758 22.4121-68.3105 23.5352-68.3105C27.3438-68.3105 29.6875-64.5508 28.7109-58.4961C28.3203-55.8105 29.0527-53.7109 30.7617-52.2461C37.4023-46.4355 40.2344-39.0137 40.2344-22.5098C40.2344-18.5547 43.0176-15.7227 46.9727-15.7227C50.8789-15.7227 61.084-17.9199 76.123-17.9199C91.9434-17.9199 95.7031-16.4551 94.5801-12.5488Z"/>
   <path class="monochrome-1 multicolor-1:tintColor hierarchical-1:secondary SFSymbolsPreviewWireframe" d="M66.6992-31.8848C66.6992-37.6465 62.1582-40.4297 62.1582-43.0664C62.1582-44.7754 62.5488-45.459 63.7207-47.1191C66.5527-50.8789 61.1328-54.7852 58.3008-51.1719C56.3477-48.6816 55.4199-46.2402 55.4199-43.4082C55.4199-37.4023 59.8633-35.1562 59.8633-31.8848C59.8633-28.6133 55.4199-26.3672 55.4199-20.3613C55.4199-17.5293 56.3477-15.0879 58.3008-12.5977C61.1328-8.98438 66.5527-12.8906 63.7207-16.6504C62.5488-18.3105 62.1582-18.9941 62.1582-20.7031C62.1582-23.3398 66.6992-26.123 66.6992-31.8848ZM79.248-31.8848C79.248-37.6465 74.707-40.4297 74.707-43.0664C74.707-44.7754 75.0977-45.459 76.2695-47.1191C79.1016-50.8789 73.6816-54.7852 70.8496-51.1719C68.8965-48.6816 67.9688-46.2402 67.9688-43.4082C67.9688-37.4023 72.4121-35.1562 72.4121-31.8848C72.4121-28.6133 67.9688-26.3672 67.9688-20.3613C67.9688-17.5293 68.8965-15.0879 70.8496-12.5977C73.6816-8.98438 79.1016-12.8906 76.2695-16.6504C75.0977-18.3105 74.707-18.9941 74.707-20.7031C74.707-23.3398 79.248-26.123 79.248-31.8848ZM91.7969-31.8848C91.7969-37.6465 87.2559-40.4297 87.2559-43.0664C87.2559-44.7754 87.6465-45.459 88.8184-47.1191C91.6504-50.8789 86.2305-54.7852 83.3984-51.1719C81.4453-48.6816 80.5176-46.2402 80.5176-43.4082C80.5176-37.4023 84.9609-35.1562 84.9609-31.8848C84.9609-28.6133 80.5176-26.3672 80.5176-20.3613C80.5176-17.5293 81.4453-15.0879 83.3984-12.5977C86.2305-8.98438 91.6504-12.8906 88.8184-16.6504C87.6465-18.3105 87.2559-18.9941 87.2559-20.7031C87.2559-23.3398 91.7969-26.123 91.7969-31.8848Z"/>
  </g>
  <g id="Regular-S" transform="matrix(1 0 0 1 1395.89 696)">
   <path class="monochrome-0 multicolor-0:tintColor hierarchical-0:primary SFSymbolsPreviewWireframe" d="M97.4609-10.8887C100.781-22.7539 92.0898-27.9785 70.8496-27.9785C61.2793-27.9785 51.5137-27.1973 43.1152-25.6836L45.166-23.1445C46.2891-39.3066 41.8457-52.3926 33.1055-58.9844L33.9355-54.7852C37.7441-67.041 30.0781-76.3672 20.3613-76.3672C12.207-76.3672 8.1543-70.5078 10.3516-61.6699L24.8047-3.22266C26.2695 2.68555 30.0781 5.81055 35.9375 5.81055L82.4707 5.81055C90.625 5.81055 93.9453 1.9043 97.4609-10.8887ZM90.7227-12.7441C87.8418-2.39258 86.4746-1.2207 82.4707-1.2207L35.9375-1.2207C33.6426-1.2207 32.2754-2.49023 31.6406-4.93164L17.1387-63.5254C16.2598-67.041 17.5781-69.3359 20.3613-69.3359C24.8047-69.3359 28.7598-65.2832 27.6367-58.252C27.1484-55.2734 27.5391-54.4434 29.1504-53.0762C35.3516-48.0957 38.8184-37.207 38.7695-22.998C38.7695-20.459 40.3809-18.7988 42.8711-18.7988C46.6309-18.8965 56.4453-20.8984 70.8496-20.8984C87.8906-20.8984 92.334-18.6035 90.7227-12.7441Z"/>
   <path class="monochrome-1 multicolor-1:tintColor hierarchical-1:secondary SFSymbolsPreviewWireframe" d="M60.4004-32.7148C60.4004-37.8906 55.9082-40.6738 55.9082-43.9453C55.9082-45.8496 56.3965-46.8262 57.666-48.5352C59.668-51.2695 55.8594-54.0039 53.8086-51.3672C51.9531-49.0723 51.1719-46.875 51.1719-44.2383C51.1719-38.8672 55.6152-36.5723 55.6152-32.7148C55.6152-28.9062 51.1719-26.5625 51.1719-21.2402C51.1719-18.6035 51.9531-16.4062 53.8086-14.1113C55.8594-11.4746 59.668-14.209 57.666-16.9434C56.3965-18.6523 55.9082-19.6289 55.9082-21.5332C55.9082-24.7559 60.4004-27.5391 60.4004-32.7148ZM72.9004-32.7148C72.9004-37.8906 68.3594-40.6738 68.3594-43.9453C68.3594-45.8496 68.8477-46.8262 70.1172-48.5352C72.168-51.2695 68.3594-54.0039 66.3086-51.3672C64.4531-49.0723 63.623-46.875 63.623-44.2383C63.623-38.8672 68.0664-36.5723 68.0664-32.7148C68.0664-28.9062 63.623-26.5625 63.623-21.2402C63.623-18.6035 64.4531-16.4062 66.3086-14.1113C68.3105-11.4746 72.168-14.209 70.1172-16.9434C68.8477-18.6523 68.3594-19.6289 68.3594-21.5332C68.3594-24.7559 72.9004-27.5391 72.9004-32.7148ZM85.4004-32.7148C85.4004-37.8906 80.8594-40.6738 80.8594-43.9453C80.8594-45.8496 81.3477-46.8262 82.6172-48.5352C84.668-51.2695 80.8105-54.0039 78.7598-51.3672C76.9531-49.0723 76.123-46.875 76.123-44.2383C76.123-38.8672 80.5664-36.5723 80.5664-32.7148C80.5664-28.9062 76.123-26.5625 76.123-21.2402C76.123-18.6035 76.9531-16.4062 78.7598-14.1113C80.8105-11.4746 84.6191-14.209 82.6172-16.9434C81.3477-18.6523 80.8594-19.6289 80.8594-21.5332C80.8594-24.7559 85.4004-27.5391 85.4004-32.7148Z"/>
  </g>
  <g id="Ultralight-S" transform="matrix(1 0 0 1 510.638 696)">
   <path class="monochrome-0 multicolor-0:tintColor hierarchical-0:primary SFSymbolsPreviewWireframe" d="M87.9703-11.6606C90.2462-21.1646 83.5074-25.1631 66.4449-25.1631C56.6021-25.1631 46.9727-24.3364 38.8013-22.7774L39.4444-21.8731C41.0669-38.6709 35.2613-54.2998 25.4766-59.5293L25.8526-58.1001C27.7994-68.2217 22.1768-73.1431 16.5015-73.1431C12.1162-73.1431 8.51758-70.0083 10.1699-63.3047L24.396-5.12987C25.5884-0.22068 29.1245 2.63186 33.8941 2.63186L74.4332 2.63186C81.0889 2.63186 85.272-0.638652 87.9703-11.6606ZM85.8638-12.2446C83.3462-2.0293 79.754 0.459459 74.4332 0.459459L33.8941 0.459459C30.1914 0.459459 27.462-1.8545 26.5093-5.70361L12.2798-63.707C11.083-68.6304 13.5367-70.9707 16.5923-70.9707C20.7178-70.9707 24.7637-67.2812 23.9131-59.4326C23.7881-58.5429 23.7246-58.0761 24.5186-57.6172C33.4444-52.5459 38.5913-37.6157 37.3618-22.6348C37.271-21.1401 38.1104-20.4336 39.5108-20.6606C46.54-21.9389 56.3545-22.9419 66.4449-22.9419C82.169-22.9419 87.7476-19.875 85.8638-12.2446Z"/>
   <path class="monochrome-1 multicolor-1:tintColor hierarchical-1:secondary SFSymbolsPreviewWireframe" d="M54.0884-30.5352C54.0884-34.8482 49.6417-37.7676 49.6417-42.0381C49.6417-43.9878 50.2208-45.2822 51.5811-47.1729C52.4932-48.4087 50.9097-49.5992 49.9034-48.3701C48.1841-46.2114 47.5391-44.4229 47.5391-42.0586C47.5391-37.5049 51.9825-33.8931 51.9825-30.5352C51.9825-27.3623 47.5391-23.5655 47.5391-19.1968C47.5391-16.6509 48.1841-14.8623 49.8125-12.8399C50.7281-11.7471 52.3116-12.8921 51.4449-14.128C50.2208-15.7915 49.6417-17.086 49.6417-19.2173C49.6417-23.3027 54.0884-26.0859 54.0884-30.5352ZM65.3624-30.5352C65.3624-34.8482 60.9122-37.7676 60.9122-42.0381C60.9122-43.9878 61.4913-45.2822 62.897-47.1729C63.7672-48.4087 62.1836-49.5992 61.2227-48.3701C59.5035-46.2114 58.855-44.4229 58.855-42.0586C58.855-37.5049 63.2984-33.8931 63.2984-30.5352C63.2984-27.3623 58.855-23.5655 58.855-19.1968C58.855-16.6509 59.5035-14.8623 61.1319-12.8399C61.9986-11.7471 63.6309-12.8921 62.7154-14.128C61.4913-15.7915 60.9122-17.086 60.9122-19.2173C60.9122-23.3027 65.3624-26.0859 65.3624-30.5352ZM76.6817-30.5352C76.6817-34.8482 72.2315-37.7676 72.2315-42.0381C72.2315-43.9878 72.8106-45.2822 74.171-47.1729C75.0411-48.4087 73.4542-49.5992 72.4932-48.3701C70.7774-46.2114 70.129-44.4229 70.129-42.0586C70.129-37.5049 74.5723-33.8931 74.5723-30.5352C74.5723-27.3623 70.129-23.5655 70.129-19.1968C70.129-16.6509 70.7774-14.8623 72.4024-12.8399C73.2725-11.7471 74.9014-12.8921 74.0347-14.128C72.8106-15.7915 72.2315-17.086 72.2315-19.2173C72.2315-23.3027 76.6817-26.0859 76.6817-30.5352Z"/>
  </g>
 </g>
</svg>
