<?xml version="1.0" encoding="UTF-8"?>
<!--Generator: Apple Native CoreSVG 341-->
<!DOCTYPE svg
PUBLIC "-//W3C//DTD SVG 1.1//EN"
       "http://www.w3.org/Graphics/SVG/1.1/DTD/svg11.dtd">
<svg version="1.1" xmlns="http://www.w3.org/2000/svg" xmlns:xlink="http://www.w3.org/1999/xlink" viewBox="0 0 3300 2200">
 <!--glyph: "1026F5", point size: 100.0, font version: "21.1d1e1", template writer version: "138.0.0"-->
 <style>.defaults {-sfsymbols-variable-value-mode:draw;-sfsymbols-draw-reverses-motion-groups:true}

.monochrome-0 {-sfsymbols-variable-draw:0 1;-sfsymbols-motion-group:1;-sfsymbols-layer-tags:_enclosure.stroke circle figure.run.treadmill.circle}
.monochrome-1 {-sfsymbols-motion-group:0;-sfsymbols-always-pulses:true;-sfsymbols-layer-tags:figure.run.treadmill.circle}

.multicolor-0:tintColor {-sfsymbols-variable-draw:0 1;-sfsymbols-motion-group:1;-sfsymbols-layer-tags:_enclosure.stroke circle figure.run.treadmill.circle}
.multicolor-1:tintColor {-sfsymbols-motion-group:0;-sfsymbols-always-pulses:true;-sfsymbols-layer-tags:figure.run.treadmill.circle}

.hierarchical-0:secondary {-sfsymbols-variable-draw:0 1;-sfsymbols-motion-group:1;-sfsymbols-layer-tags:_enclosure.stroke circle figure.run.treadmill.circle}
.hierarchical-1:primary {-sfsymbols-motion-group:0;-sfsymbols-always-pulses:true;-sfsymbols-layer-tags:figure.run.treadmill.circle}

.SFSymbolsPreviewWireframe {fill:none;opacity:1.0;stroke:black;stroke-width:0.5}
</style>
 <g id="Notes">
  <rect height="2200" id="artboard" style="fill:white;opacity:1" width="3300" x="0" y="0"/>
  <line style="fill:none;stroke:black;opacity:1;stroke-width:0.5;" x1="263" x2="3036" y1="292" y2="292"/>
  <text style="stroke:none;fill:black;font-family:sans-serif;font-size:13;font-weight:bold;" transform="matrix(1 0 0 1 263 322)">Weight/Scale Variations</text>
  <text style="stroke:none;fill:black;font-family:sans-serif;font-size:13;text-anchor:middle;" transform="matrix(1 0 0 1 559.711 322)">Ultralight</text>
  <text style="stroke:none;fill:black;font-family:sans-serif;font-size:13;text-anchor:middle;" transform="matrix(1 0 0 1 856.422 322)">Thin</text>
  <text style="stroke:none;fill:black;font-family:sans-serif;font-size:13;text-anchor:middle;" transform="matrix(1 0 0 1 1153.13 322)">Light</text>
  <text style="stroke:none;fill:black;font-family:sans-serif;font-size:13;text-anchor:middle;" transform="matrix(1 0 0 1 1449.84 322)">Regular</text>
  <text style="stroke:none;fill:black;font-family:sans-serif;font-size:13;text-anchor:middle;" transform="matrix(1 0 0 1 1746.56 322)">Medium</text>
  <text style="stroke:none;fill:black;font-family:sans-serif;font-size:13;text-anchor:middle;" transform="matrix(1 0 0 1 2043.27 322)">Semibold</text>
  <text style="stroke:none;fill:black;font-family:sans-serif;font-size:13;text-anchor:middle;" transform="matrix(1 0 0 1 2339.98 322)">Bold</text>
  <text style="stroke:none;fill:black;font-family:sans-serif;font-size:13;text-anchor:middle;" transform="matrix(1 0 0 1 2636.69 322)">Heavy</text>
  <text style="stroke:none;fill:black;font-family:sans-serif;font-size:13;text-anchor:middle;" transform="matrix(1 0 0 1 2933.4 322)">Black</text>
  <line style="fill:none;stroke:black;opacity:1;stroke-width:0.5;" x1="263" x2="3036" y1="1903" y2="1903"/>
  <g transform="matrix(0.2 0 0 0.2 263 1933)">
   <path d="m46.2402 4.15039c21.7773 0 39.4531-17.627 39.4531-39.4043s-17.6758-39.4043-39.4531-39.4043c-21.7285 0-39.4043 17.627-39.4043 39.4043s17.6758 39.4043 39.4043 39.4043Zm0-7.42188c-17.6758 0-31.9336-14.3066-31.9336-31.9824s14.2578-31.9824 31.9336-31.9824 31.9824 14.3066 31.9824 31.9824-14.3066 31.9824-31.9824 31.9824Zm3.61328-17.7734v-28.4668c0-2.24609-1.46484-3.75977-3.71094-3.75977-2.14844 0-3.61328 1.51367-3.61328 3.75977v28.4668c0 2.19727 1.46484 3.71094 3.61328 3.71094 2.24609 0 3.71094-1.51367 3.71094-3.71094Zm-17.8223-10.5957h28.418c2.19727 0 3.71094-1.46484 3.71094-3.61328 0-2.19727-1.51367-3.71094-3.71094-3.71094h-28.418c-2.24609 0-3.75977 1.51367-3.75977 3.71094 0 2.14844 1.51367 3.61328 3.75977 3.61328Z"/>
  </g>
  <g transform="matrix(0.2 0 0 0.2 281.506 1933)">
   <path d="m58.5449 14.5508c27.4902 0 49.8047-22.3145 49.8047-49.8047s-22.3145-49.8047-49.8047-49.8047-49.8047 22.3145-49.8047 49.8047 22.3145 49.8047 49.8047 49.8047Zm0-8.30078c-22.9492 0-41.5039-18.5547-41.5039-41.5039s18.5547-41.5039 41.5039-41.5039 41.5039 18.5547 41.5039 41.5039-18.5547 41.5039-41.5039 41.5039Zm4.05273-23.0957v-36.9141c0-2.49023-1.70898-4.19922-4.15039-4.19922-2.39258 0-4.05273 1.70898-4.05273 4.19922v36.9141c0 2.44141 1.66016 4.15039 4.05273 4.15039 2.44141 0 4.15039-1.66016 4.15039-4.15039Zm-22.5586-14.4043h36.9629c2.44141 0 4.15039-1.61133 4.15039-4.00391 0-2.44141-1.70898-4.15039-4.15039-4.15039h-36.9629c-2.49023 0-4.15039 1.70898-4.15039 4.15039 0 2.39258 1.66016 4.00391 4.15039 4.00391Z"/>
  </g>
  <g transform="matrix(0.2 0 0 0.2 304.924 1933)">
   <path d="m74.8535 28.3203c35.1074 0 63.623-28.4668 63.623-63.5742s-28.5156-63.623-63.623-63.623-63.5742 28.5156-63.5742 63.623 28.4668 63.5742 63.5742 63.5742Zm0-9.08203c-30.127 0-54.4922-24.3652-54.4922-54.4922s24.3652-54.4922 54.4922-54.4922 54.4922 24.3652 54.4922 54.4922-24.3652 54.4922-54.4922 54.4922Zm4.44336-30.3223v-48.4863c0-2.73438-1.85547-4.63867-4.54102-4.63867-2.58789 0-4.44336 1.9043-4.44336 4.63867v48.4863c0 2.68555 1.85547 4.58984 4.44336 4.58984 2.68555 0 4.54102-1.85547 4.54102-4.58984Zm-28.7109-19.7754h48.4863c2.68555 0 4.58984-1.80664 4.58984-4.39453 0-2.73438-1.85547-4.58984-4.58984-4.58984h-48.4863c-2.73438 0-4.58984 1.85547-4.58984 4.58984 0 2.58789 1.85547 4.39453 4.58984 4.39453Z"/>
  </g>
  <text style="stroke:none;fill:black;font-family:sans-serif;font-size:13;font-weight:bold;" transform="matrix(1 0 0 1 263 1953)">Design Variations</text>
  <text style="stroke:none;fill:black;font-family:sans-serif;font-size:13;" transform="matrix(1 0 0 1 263 1971)">Symbols are supported in up to nine weights and three scales.</text>
  <text style="stroke:none;fill:black;font-family:sans-serif;font-size:13;" transform="matrix(1 0 0 1 263 1989)">For optimal layout with text and other symbols, vertically align</text>
  <text style="stroke:none;fill:black;font-family:sans-serif;font-size:13;" transform="matrix(1 0 0 1 263 2007)">symbols with the adjacent text.</text>
  <line style="fill:none;stroke:#00AEEF;stroke-width:0.5;opacity:1.0;" x1="776" x2="776" y1="1919" y2="1933"/>
  <g transform="matrix(0.2 0 0 0.2 776 1933)">
   <path d="m16.5527 0.78125c2.58789 0 3.85742-0.976562 4.78516-3.71094l20.5566-57.5195h0.244141l20.6055 57.5195c0.927734 2.73438 2.19727 3.71094 4.73633 3.71094 2.58789 0 4.24805-1.5625 4.24805-4.00391 0-0.830078-0.146484-1.61133-0.537109-2.63672l-22.9004-60.9863c-1.12305-2.97852-3.125-4.49219-6.25-4.49219-3.02734 0-5.07812 1.46484-6.15234 4.44336l-22.9004 61.084c-0.390625 1.02539-0.537109 1.80664-0.537109 2.63672 0 2.44141 1.5625 3.95508 4.10156 3.95508Zm10.2051-20.9473h30.6641c2.00195 0 3.66211-1.66016 3.66211-3.66211 0-2.05078-1.66016-3.66211-3.66211-3.66211h-30.6641c-2.00195 0-3.66211 1.61133-3.66211 3.66211 0 2.00195 1.66016 3.66211 3.66211 3.66211Z"/>
  </g>
  <line style="fill:none;stroke:#00AEEF;stroke-width:0.5;opacity:1.0;" x1="792.836" x2="792.836" y1="1919" y2="1933"/>
  <text style="stroke:none;fill:black;font-family:sans-serif;font-size:13;font-weight:bold;" transform="matrix(1 0 0 1 776 1953)">Margins</text>
  <text style="stroke:none;fill:black;font-family:sans-serif;font-size:13;" transform="matrix(1 0 0 1 776 1971)">Leading and trailing margins on the left and right side of each symbol</text>
  <text style="stroke:none;fill:black;font-family:sans-serif;font-size:13;" transform="matrix(1 0 0 1 776 1989)">can be adjusted by modifying the x-location of the margin guidelines.</text>
  <text style="stroke:none;fill:black;font-family:sans-serif;font-size:13;" transform="matrix(1 0 0 1 776 2007)">Modifications are automatically applied proportionally to all</text>
  <text style="stroke:none;fill:black;font-family:sans-serif;font-size:13;" transform="matrix(1 0 0 1 776 2025)">scales and weights.</text>
  <g transform="matrix(0.2 0 0 0.2 1289 1933)">
   <path d="m14.209 13.1348 7.86133 7.86133c4.29688 4.39453 9.32617 4.10156 13.8672-1.02539l60.6934-68.2129-4.88281-4.88281-60.2539 67.6758c-1.80664 1.95312-3.4668 2.44141-5.81055 0.0976562l-5.17578-5.12695c-2.29492-2.29492-1.80664-3.95508 0.195312-5.81055l67.4805-62.1582-4.88281-4.83398-68.0664 62.5977c-4.98047 4.58984-5.32227 9.47266-1.02539 13.8184Zm44.873-97.4609c-2.05078 2.00195-2.24609 4.88281-1.07422 6.78711 1.12305 1.80664 3.4668 3.02734 6.5918 2.24609 5.85938-1.66016 12.5977-2.39258 18.8965 0.927734l-2.68555 7.12891c-1.61133 4.00391-0.732422 6.88477 1.70898 9.42383l10.2539 10.3027c2.34375 2.39258 4.54102 2.44141 7.08008 1.95312l4.44336-0.732422 2.58789 2.53906-0.195312 2.24609c-0.0976562 2.29492 0.537109 4.29688 2.7832 6.49414l3.36914 3.32031c2.29492 2.29492 5.51758 2.49023 7.8125 0.195312l12.9883-13.0371c2.29492-2.34375 2.14844-5.37109-0.195312-7.66602l-3.41797-3.41797c-2.19727-2.19727-4.05273-3.02734-6.34766-2.88086l-2.34375 0.244141-2.44141-2.44141 1.02539-4.6875c0.634766-2.73438-0.244141-4.98047-2.88086-7.61719l-11.2793-11.1816c-12.9395-12.8418-35.5957-11.0352-46.6797-0.146484Zm7.08008 2.05078c8.78906-6.39648 25.9766-5.66406 33.6914 1.95312l12.3047 12.207c1.02539 1.02539 1.2207 1.80664 0.927734 3.32031l-1.46484 6.64062 6.73828 6.68945 4.39453-0.244141c1.12305-0.0488281 1.51367 0.0488281 2.34375 0.878906l2.53906 2.49023-10.8398 10.8398-2.49023-2.49023c-0.830078-0.878906-0.976562-1.2207-0.927734-2.39258l0.292969-4.3457-6.68945-6.73828-6.83594 1.17188c-1.41602 0.292969-2.05078 0.195312-3.17383-0.878906l-8.93555-8.88672c-1.07422-1.02539-1.17188-1.70898-0.488281-3.36914l4.58984-11.4746c-6.10352-6.34766-17.041-7.51953-25.5859-4.58984-0.683594 0.244141-0.927734-0.390625-0.390625-0.78125Z"/>
  </g>
  <text style="stroke:none;fill:black;font-family:sans-serif;font-size:13;font-weight:bold;" transform="matrix(1 0 0 1 1289 1953)">Exporting</text>
  <text style="stroke:none;fill:black;font-family:sans-serif;font-size:13;" transform="matrix(1 0 0 1 1289 1971)">Symbols should be outlined when exporting to ensure the</text>
  <text style="stroke:none;fill:black;font-family:sans-serif;font-size:13;" transform="matrix(1 0 0 1 1289 1989)">design is preserved when submitting to Xcode.</text>
  <text id="template-version" style="stroke:none;fill:black;font-family:sans-serif;font-size:13;text-anchor:end;" transform="matrix(1 0 0 1 3036 1933)">Template v.7.0</text>
  <text style="stroke:none;fill:black;font-family:sans-serif;font-size:13;text-anchor:end;" transform="matrix(1 0 0 1 3036 1951)">Requires Xcode 26 or greater</text>
  <text id="descriptive-name" style="stroke:none;fill:black;font-family:sans-serif;font-size:13;text-anchor:end;" transform="matrix(1 0 0 1 3036 1969)">Generated from figure.run.treadmill.circle</text>
  <text style="stroke:none;fill:black;font-family:sans-serif;font-size:13;text-anchor:end;" transform="matrix(1 0 0 1 3036 1987)">Typeset at 100.0 points</text>
  <text style="stroke:none;fill:black;font-family:sans-serif;font-size:13;" transform="matrix(1 0 0 1 263 726)">Small</text>
  <text style="stroke:none;fill:black;font-family:sans-serif;font-size:13;" transform="matrix(1 0 0 1 263 1156)">Medium</text>
  <text style="stroke:none;fill:black;font-family:sans-serif;font-size:13;" transform="matrix(1 0 0 1 263 1586)">Large</text>
 </g>
 <g id="Guides">
  <g id="H-reference" style="fill:#27AAE1;stroke:none;" transform="matrix(1 0 0 1 339 696)">
   <path d="M0.993654 0L3.63775 0L29.3281-67.1323L30.0303-67.1323L30.0303-70.459L28.1226-70.459ZM11.6885-24.4799L46.9815-24.4799L46.2315-26.7285L12.4385-26.7285ZM55.1196 0L57.7637 0L30.6382-70.459L29.4326-70.459L29.4326-67.1323Z"/>
  </g>
  <line id="Baseline-S" style="fill:none;stroke:#27AAE1;opacity:1;stroke-width:0.5;" x1="263" x2="3036" y1="696" y2="696"/>
  <line id="Capline-S" style="fill:none;stroke:#27AAE1;opacity:1;stroke-width:0.5;" x1="263" x2="3036" y1="625.541" y2="625.541"/>
  <g id="H-reference" style="fill:#27AAE1;stroke:none;" transform="matrix(1 0 0 1 339 1126)">
   <path d="M0.993654 0L3.63775 0L29.3281-67.1323L30.0303-67.1323L30.0303-70.459L28.1226-70.459ZM11.6885-24.4799L46.9815-24.4799L46.2315-26.7285L12.4385-26.7285ZM55.1196 0L57.7637 0L30.6382-70.459L29.4326-70.459L29.4326-67.1323Z"/>
  </g>
  <line id="Baseline-M" style="fill:none;stroke:#27AAE1;opacity:1;stroke-width:0.5;" x1="263" x2="3036" y1="1126" y2="1126"/>
  <line id="Capline-M" style="fill:none;stroke:#27AAE1;opacity:1;stroke-width:0.5;" x1="263" x2="3036" y1="1055.54" y2="1055.54"/>
  <g id="H-reference" style="fill:#27AAE1;stroke:none;" transform="matrix(1 0 0 1 339 1556)">
   <path d="M0.993654 0L3.63775 0L29.3281-67.1323L30.0303-67.1323L30.0303-70.459L28.1226-70.459ZM11.6885-24.4799L46.9815-24.4799L46.2315-26.7285L12.4385-26.7285ZM55.1196 0L57.7637 0L30.6382-70.459L29.4326-70.459L29.4326-67.1323Z"/>
  </g>
  <line id="Baseline-L" style="fill:none;stroke:#27AAE1;opacity:1;stroke-width:0.5;" x1="263" x2="3036" y1="1556" y2="1556"/>
  <line id="Capline-L" style="fill:none;stroke:#27AAE1;opacity:1;stroke-width:0.5;" x1="263" x2="3036" y1="1485.54" y2="1485.54"/>
  <line id="right-margin-Black-S" style="fill:none;stroke:#00AEEF;stroke-width:0.5;opacity:1.0;" x1="2982.23" x2="2982.23" y1="600.785" y2="720.121"/>
  <line id="left-margin-Black-S" style="fill:none;stroke:#00AEEF;stroke-width:0.5;opacity:1.0;" x1="2884.57" x2="2884.57" y1="600.785" y2="720.121"/>
  <line id="right-margin-Regular-S" style="fill:none;stroke:#00AEEF;stroke-width:0.5;opacity:1.0;" x1="1496.11" x2="1496.11" y1="600.785" y2="720.121"/>
  <line id="left-margin-Regular-S" style="fill:none;stroke:#00AEEF;stroke-width:0.5;opacity:1.0;" x1="1403.58" x2="1403.58" y1="600.785" y2="720.121"/>
  <line id="right-margin-Ultralight-S" style="fill:none;stroke:#00AEEF;stroke-width:0.5;opacity:1.0;" x1="603.773" x2="603.773" y1="600.785" y2="720.121"/>
  <line id="left-margin-Ultralight-S" style="fill:none;stroke:#00AEEF;stroke-width:0.5;opacity:1.0;" x1="515.649" x2="515.649" y1="600.785" y2="720.121"/>
 </g>
 <g id="Symbols">
  <g id="Black-S" transform="matrix(1 0 0 1 2884.57 696)">
   <path class="monochrome-0 multicolor-0:tintColor hierarchical-0:secondary SFSymbolsPreviewWireframe" d="M48.8281 6.73828C72.0215 6.73828 90.8203-12.0605 90.8203-35.2539C90.8203-58.4473 72.0215-77.2461 48.8281-77.2461C25.6348-77.2461 6.83594-58.4473 6.83594-35.2539C6.83594-12.0605 25.6348 6.73828 48.8281 6.73828ZM48.8281-7.42188C33.4473-7.42188 20.9961-19.873 20.9961-35.2539C20.9961-50.6348 33.4473-63.0859 48.8281-63.0859C64.209-63.0859 76.6602-50.6348 76.6602-35.2539C76.6602-19.873 64.209-7.42188 48.8281-7.42188Z" data-clipstroke-keyframes="0 4 0 0.49909934 1.5010297 0 0.24858454 0.2505148 1.749485 0 0.49588796 0.0032113674 1.996659 0 0.7506426 0.7484567 1.251544 0 1 0.49909934 1.5010297"/>
   <path class="monochrome-1 multicolor-1:tintColor hierarchical-1:primary SFSymbolsPreviewWireframe" d="M51.709-50.6348C53.8086-50.6348 55.5176-52.3438 55.5176-54.4434C55.5176-56.543 53.8086-58.252 51.709-58.252C49.6582-58.252 47.9004-56.543 47.9004-54.4434C47.9004-52.3438 49.6582-50.6348 51.709-50.6348ZM45.9473-36.6699L51.6602-33.4961L48.0469-30.3711C47.168-29.6387 47.0215-28.5156 47.7051-27.7344C48.4375-26.9043 49.5605-26.9531 50.4883-27.7344L56.0059-32.4219C56.8848-33.1543 56.7383-34.8145 55.6641-35.498L49.8535-39.2578L50.9766-43.1641C51.0742-43.5059 51.416-43.5547 51.6602-43.2129L53.418-40.6738C53.9062-39.9414 54.834-39.6973 55.6152-40.0391L60.6445-42.2852C61.7188-42.7734 62.1094-43.75 61.6211-44.6777C61.1816-45.6543 60.2539-45.8984 59.2285-45.459L55.4688-43.7988L52.832-47.4121C51.3184-49.5117 49.4141-50.293 46.4355-50.0977L40.8203-49.707C39.8438-49.6582 39.1113-48.9746 38.9648-47.9004L38.1836-42.2363C38.0371-41.0645 38.623-40.1855 39.6973-40.0879C40.7227-39.9902 41.5039-40.625 41.6504-41.7969L42.2363-46.1426L44.2871-46.2891C44.6289-46.3379 44.8242-46.0938 44.7266-45.752L43.457-41.2109C42.627-38.2324 44.5801-37.4512 45.9473-36.6699ZM35.2539-22.9492C36.084-22.2656 37.1582-22.3633 37.9883-23.1934L43.1641-28.2715C43.6523-28.7598 43.75-28.9551 43.9941-29.5898L45.7031-34.0332L44.7266-34.5215C43.75-35.0098 42.8223-35.6934 42.0898-36.5234L40.5762-31.1035L35.2539-25.8301C34.375-25 34.375-23.7305 35.2539-22.9492ZM63.6719-36.4258L71.6309-40.1367C72.5098-40.5762 72.8516-41.6016 72.4609-42.4805C72.0703-43.3105 71.0449-43.6523 70.166-43.2617L62.207-39.5508C61.3281-39.1113 60.9375-38.0859 61.377-37.207C61.7188-36.377 62.793-36.0352 63.6719-36.4258ZM62.2559-24.2188L64.5996-24.3652C64.9902-24.3652 65.3809-24.3652 65.7227-24.3164L68.75-41.3086L64.9902-39.6484ZM32.373-17.041L65.0879-17.041C66.5527-17.041 67.7734-18.2617 67.7734-19.7266C67.7734-21.4844 66.3574-22.5098 64.6973-22.4121L32.373-20.4102C31.4453-20.3613 30.7129-19.6289 30.7129-18.7012C30.7129-17.8223 31.4941-17.041 32.373-17.041Z"/>
  </g>
  <g id="Regular-S" transform="matrix(1 0 0 1 1403.58 696)">
   <path class="monochrome-0 multicolor-0:tintColor hierarchical-0:secondary SFSymbolsPreviewWireframe" d="M46.2402 4.15039C68.0176 4.15039 85.6934-13.4766 85.6934-35.2539C85.6934-57.0312 68.0176-74.6582 46.2402-74.6582C24.5117-74.6582 6.83594-57.0312 6.83594-35.2539C6.83594-13.4766 24.5117 4.15039 46.2402 4.15039ZM46.2402-3.27148C28.5645-3.27148 14.3066-17.5781 14.3066-35.2539C14.3066-52.9297 28.5645-67.2363 46.2402-67.2363C63.916-67.2363 78.2227-52.9297 78.2227-35.2539C78.2227-17.5781 63.916-3.27148 46.2402-3.27148Z" data-clipstroke-keyframes="0 4 0 0.49914446 1.5008684 0 0.24828511 0.25085935 1.7491465 0 0.49580374 0.0033407123 1.9966576 0 0.75060123 0.7485432 1.2514638 0 1 0.49914446 1.5008684"/>
   <path class="monochrome-1 multicolor-1:tintColor hierarchical-1:primary SFSymbolsPreviewWireframe" d="M49.6582-54.0527C52.002-54.0527 53.9062-55.9082 53.9062-58.252C53.9062-60.6445 52.002-62.5488 49.6582-62.5488C47.3145-62.5488 45.4102-60.6445 45.4102-58.252C45.4102-55.9082 47.3145-54.0527 49.6582-54.0527ZM43.0176-37.0605L50.3418-32.959L45.6543-28.8086C44.5801-27.8809 44.6289-26.7578 45.2148-26.0742C45.8496-25.3418 47.0215-25.1953 48.0957-26.123L54.834-31.8359C55.7617-32.6172 55.6152-34.2773 54.4922-35.0098L47.2656-39.7949L48.6816-44.8242C48.877-45.5078 49.6582-45.6543 50.0977-45.0195L52.1973-41.8945C52.7344-41.1133 53.6133-40.8691 54.4922-41.2598L60.6445-43.9941C61.7676-44.4824 62.1582-45.459 61.6699-46.4355C61.2305-47.4609 60.2539-47.7539 59.1309-47.2656L54.2969-45.1172L50.9277-49.707C49.1699-52.0996 47.0215-53.125 43.457-52.8809L36.5723-52.3926C35.498-52.2949 34.7656-51.5625 34.6191-50.4395L33.6914-43.5547C33.5449-42.2852 34.082-41.4551 35.2051-41.3086C36.2793-41.2598 36.9141-41.8945 37.1094-43.1152L37.9395-48.7305L40.7715-48.9258C41.2598-48.9746 41.9434-48.584 41.6992-47.8027L40.0879-42.2363C39.1602-38.9648 41.3086-38.0371 43.0176-37.0605ZM29.9316-20.3125C30.6641-19.6777 31.7871-19.5801 32.8125-20.5566L39.1113-26.8555C39.6484-27.3438 39.7461-27.4902 40.0879-28.3203L42.627-35.0586L42.041-35.3516C41.1133-35.8887 39.7949-36.8652 38.9648-38.2324L36.5723-29.7852L29.9805-23.2422C28.9551-22.168 29.1504-20.9961 29.9316-20.3125ZM63.2324-38.4277L73.0469-42.9688C73.7793-43.3105 74.0234-44.1895 73.7793-44.9219C73.4375-45.6543 72.5098-45.9473 71.8262-45.6055L62.0117-41.0156C61.2793-40.6738 60.9863-39.7949 61.3281-39.1113C61.6211-38.3789 62.5-38.0859 63.2324-38.4277ZM62.3047-21.582L64.6973-21.7285C64.8926-21.7285 65.0391-21.7285 65.2344-21.7285L68.8965-42.7246L65.7715-41.3086ZM25.3418-14.8926L65.2832-14.8926C66.6504-14.8926 67.7246-16.0156 67.7246-17.334C67.7246-18.9941 66.5039-19.9219 64.8438-19.8242L25.3418-17.334C24.6582-17.2852 24.1211-16.7969 24.1211-16.0645C24.1211-15.4297 24.6582-14.8926 25.3418-14.8926Z"/>
  </g>
  <g id="Ultralight-S" transform="matrix(1 0 0 1 515.649 696)">
   <path class="monochrome-0 multicolor-0:tintColor hierarchical-0:secondary SFSymbolsPreviewWireframe" d="M44.0606 1.97072C64.6118 1.97072 81.2886-14.7026 81.2886-35.2539C81.2886-55.8052 64.6118-72.4785 44.0606-72.4785C23.5127-72.4785 6.83594-55.8052 6.83594-35.2539C6.83594-14.7026 23.5127 1.97072 44.0606 1.97072ZM44.0606-0.274438C24.7046-0.274438 9.0391-15.898 9.0391-35.2539C9.0391-54.6099 24.7046-70.2334 44.0606-70.2334C63.4165-70.2334 79.04-54.6099 79.04-35.2539C79.04-15.898 63.4165-0.274438 44.0606-0.274438Z" data-clipstroke-keyframes="0 4 0 0.49911258 1.5011578 0 0.24859153 0.25052106 1.7495481 0 0.49577427 0.0033383023 1.9966562 0 0.75064886 0.74846375 1.2516088 0 1 0.49911258 1.5011578"/>
   <path class="monochrome-1 multicolor-1:tintColor hierarchical-1:primary SFSymbolsPreviewWireframe" d="M47.0244-52.6904C49.4136-52.6904 51.3179-54.5913 51.3179-56.9351C51.3179-59.3276 49.4136-61.2319 47.0244-61.2319C44.6807-61.2319 42.7764-59.3276 42.7764-56.9351C42.7764-54.5913 44.6807-52.6904 47.0244-52.6904ZM40.3384-35.335L48.1167-31.0064L43.0659-26.6743C42.1279-25.8828 41.9951-24.8052 42.6719-24.0308C43.3975-23.2075 44.5239-23.2427 45.5073-24.0796L52.3364-29.9287C53.2188-30.6646 53.1177-32.3247 52.0401-33.0117L44.4956-37.9785L46.0025-43.1895C46.2432-44.0547 47.1607-44.1558 47.6455-43.4302L49.836-40.2144C50.3277-39.4785 51.252-39.2798 52.0401-39.625L58.374-42.4502C59.4063-42.8931 59.8423-43.7788 59.354-44.8008C58.9146-45.7354 58.0288-46.0283 56.9058-45.5401L51.8447-43.3008L48.3394-48.1177C46.5362-50.6011 44.2969-51.5357 40.7324-51.2915L33.7114-50.8032C32.6826-50.751 31.9502-50.0186 31.8037-48.9409L30.876-41.8291C30.7295-40.6504 31.2666-39.8203 32.2989-39.7193C33.3731-39.625 33.9624-40.2144 34.1577-41.3897L35.0332-47.3228L37.9561-47.4727C38.7168-47.5215 39.2642-46.9946 39.0655-46.2588L37.4541-40.5108C36.5264-37.2393 38.584-36.3115 40.3384-35.335ZM26.98-18.0874C27.7124-17.3618 28.8809-17.5366 29.7246-18.377L36.2051-24.812C36.7422-25.3457 36.8399-25.4468 37.1817-26.2769L40.084-33.7871L39.5889-34.0347C38.5703-34.5264 37.0703-35.3667 36.2857-36.8247L33.8023-27.6963L27.0288-20.9717C26.1397-20.0791 26.1533-18.9072 26.98-18.0874ZM61.2798-35.8848L71.2759-40.562C71.7359-40.7676 71.8438-41.2832 71.6904-41.607C71.5303-41.9761 71.1021-42.2237 70.6001-41.9727L60.6494-37.3374C60.0986-37.0865 60.0327-36.5708 60.1929-36.2051C60.3496-35.8814 60.7744-35.6338 61.2798-35.8848ZM61.3057-18.3125L61.9727-18.3682C62.5767-18.4136 62.6323-18.4136 62.9639-18.4136L66.5806-39.0918L64.8633-38.357ZM22.481-13.2578L63.6939-13.2578C64.7886-13.2578 65.5449-14.0176 65.5449-15.1543C65.5449-16.4058 64.6421-17.0611 63.2544-16.9634L22.5264-14.4732C22.1153-14.4697 21.896-14.1631 21.896-13.8394C21.896-13.5225 22.1607-13.2578 22.481-13.2578Z"/>
  </g>
 </g>
</svg>
