<?xml version="1.0" encoding="UTF-8"?>
<!--Generator: Apple Native CoreSVG 341-->
<!DOCTYPE svg
PUBLIC "-//W3C//DTD SVG 1.1//EN"
       "http://www.w3.org/Graphics/SVG/1.1/DTD/svg11.dtd">
<svg version="1.1" xmlns="http://www.w3.org/2000/svg" xmlns:xlink="http://www.w3.org/1999/xlink" viewBox="0 0 3300 2200">
 <!--glyph: "1023BB", point size: 100.0, font version: "21.1d1e1", template writer version: "138.0.0"-->
 <style>.defaults {-sfsymbols-wiggle-style:clockwise;-sfsymbols-variable-value-mode:draw;-sfsymbols-draw-reverses-motion-groups:true}

.monochrome-0 {-sfsymbols-variable-draw:0 1;-sfsymbols-motion-group:1;-sfsymbols-layer-tags:_enclosure.stroke circle rugbyball.circle}
.monochrome-1 {-sfsymbols-motion-group:0;-sfsymbols-always-pulses:true;-sfsymbols-layer-tags:rugbyball.circle}

.multicolor-0:tintColor {-sfsymbols-variable-draw:0 1;-sfsymbols-motion-group:1;-sfsymbols-layer-tags:_enclosure.stroke circle rugbyball.circle}
.multicolor-1:tintColor {-sfsymbols-motion-group:0;-sfsymbols-always-pulses:true;-sfsymbols-layer-tags:rugbyball.circle}

.hierarchical-0:secondary {-sfsymbols-variable-draw:0 1;-sfsymbols-motion-group:1;-sfsymbols-layer-tags:_enclosure.stroke circle rugbyball.circle}
.hierarchical-1:primary {-sfsymbols-motion-group:0;-sfsymbols-always-pulses:true;-sfsymbols-layer-tags:rugbyball.circle}

.SFSymbolsPreviewWireframe {fill:none;opacity:1.0;stroke:black;stroke-width:0.5}
</style>
 <g id="Notes">
  <rect height="2200" id="artboard" style="fill:white;opacity:1" width="3300" x="0" y="0"/>
  <line style="fill:none;stroke:black;opacity:1;stroke-width:0.5;" x1="263" x2="3036" y1="292" y2="292"/>
  <text style="stroke:none;fill:black;font-family:sans-serif;font-size:13;font-weight:bold;" transform="matrix(1 0 0 1 263 322)">Weight/Scale Variations</text>
  <text style="stroke:none;fill:black;font-family:sans-serif;font-size:13;text-anchor:middle;" transform="matrix(1 0 0 1 559.711 322)">Ultralight</text>
  <text style="stroke:none;fill:black;font-family:sans-serif;font-size:13;text-anchor:middle;" transform="matrix(1 0 0 1 856.422 322)">Thin</text>
  <text style="stroke:none;fill:black;font-family:sans-serif;font-size:13;text-anchor:middle;" transform="matrix(1 0 0 1 1153.13 322)">Light</text>
  <text style="stroke:none;fill:black;font-family:sans-serif;font-size:13;text-anchor:middle;" transform="matrix(1 0 0 1 1449.84 322)">Regular</text>
  <text style="stroke:none;fill:black;font-family:sans-serif;font-size:13;text-anchor:middle;" transform="matrix(1 0 0 1 1746.56 322)">Medium</text>
  <text style="stroke:none;fill:black;font-family:sans-serif;font-size:13;text-anchor:middle;" transform="matrix(1 0 0 1 2043.27 322)">Semibold</text>
  <text style="stroke:none;fill:black;font-family:sans-serif;font-size:13;text-anchor:middle;" transform="matrix(1 0 0 1 2339.98 322)">Bold</text>
  <text style="stroke:none;fill:black;font-family:sans-serif;font-size:13;text-anchor:middle;" transform="matrix(1 0 0 1 2636.69 322)">Heavy</text>
  <text style="stroke:none;fill:black;font-family:sans-serif;font-size:13;text-anchor:middle;" transform="matrix(1 0 0 1 2933.4 322)">Black</text>
  <line style="fill:none;stroke:black;opacity:1;stroke-width:0.5;" x1="263" x2="3036" y1="1903" y2="1903"/>
  <g transform="matrix(0.2 0 0 0.2 263 1933)">
   <path d="m46.2402 4.15039c21.7773 0 39.4531-17.627 39.4531-39.4043s-17.6758-39.4043-39.4531-39.4043c-21.7285 0-39.4043 17.627-39.4043 39.4043s17.6758 39.4043 39.4043 39.4043Zm0-7.42188c-17.6758 0-31.9336-14.3066-31.9336-31.9824s14.2578-31.9824 31.9336-31.9824 31.9824 14.3066 31.9824 31.9824-14.3066 31.9824-31.9824 31.9824Zm3.61328-17.7734v-28.4668c0-2.24609-1.46484-3.75977-3.71094-3.75977-2.14844 0-3.61328 1.51367-3.61328 3.75977v28.4668c0 2.19727 1.46484 3.71094 3.61328 3.71094 2.24609 0 3.71094-1.51367 3.71094-3.71094Zm-17.8223-10.5957h28.418c2.19727 0 3.71094-1.46484 3.71094-3.61328 0-2.19727-1.51367-3.71094-3.71094-3.71094h-28.418c-2.24609 0-3.75977 1.51367-3.75977 3.71094 0 2.14844 1.51367 3.61328 3.75977 3.61328Z"/>
  </g>
  <g transform="matrix(0.2 0 0 0.2 281.506 1933)">
   <path d="m58.5449 14.5508c27.4902 0 49.8047-22.3145 49.8047-49.8047s-22.3145-49.8047-49.8047-49.8047-49.8047 22.3145-49.8047 49.8047 22.3145 49.8047 49.8047 49.8047Zm0-8.30078c-22.9492 0-41.5039-18.5547-41.5039-41.5039s18.5547-41.5039 41.5039-41.5039 41.5039 18.5547 41.5039 41.5039-18.5547 41.5039-41.5039 41.5039Zm4.05273-23.0957v-36.9141c0-2.49023-1.70898-4.19922-4.15039-4.19922-2.39258 0-4.05273 1.70898-4.05273 4.19922v36.9141c0 2.44141 1.66016 4.15039 4.05273 4.15039 2.44141 0 4.15039-1.66016 4.15039-4.15039Zm-22.5586-14.4043h36.9629c2.44141 0 4.15039-1.61133 4.15039-4.00391 0-2.44141-1.70898-4.15039-4.15039-4.15039h-36.9629c-2.49023 0-4.15039 1.70898-4.15039 4.15039 0 2.39258 1.66016 4.00391 4.15039 4.00391Z"/>
  </g>
  <g transform="matrix(0.2 0 0 0.2 304.924 1933)">
   <path d="m74.8535 28.3203c35.1074 0 63.623-28.4668 63.623-63.5742s-28.5156-63.623-63.623-63.623-63.5742 28.5156-63.5742 63.623 28.4668 63.5742 63.5742 63.5742Zm0-9.08203c-30.127 0-54.4922-24.3652-54.4922-54.4922s24.3652-54.4922 54.4922-54.4922 54.4922 24.3652 54.4922 54.4922-24.3652 54.4922-54.4922 54.4922Zm4.44336-30.3223v-48.4863c0-2.73438-1.85547-4.63867-4.54102-4.63867-2.58789 0-4.44336 1.9043-4.44336 4.63867v48.4863c0 2.68555 1.85547 4.58984 4.44336 4.58984 2.68555 0 4.54102-1.85547 4.54102-4.58984Zm-28.7109-19.7754h48.4863c2.68555 0 4.58984-1.80664 4.58984-4.39453 0-2.73438-1.85547-4.58984-4.58984-4.58984h-48.4863c-2.73438 0-4.58984 1.85547-4.58984 4.58984 0 2.58789 1.85547 4.39453 4.58984 4.39453Z"/>
  </g>
  <text style="stroke:none;fill:black;font-family:sans-serif;font-size:13;font-weight:bold;" transform="matrix(1 0 0 1 263 1953)">Design Variations</text>
  <text style="stroke:none;fill:black;font-family:sans-serif;font-size:13;" transform="matrix(1 0 0 1 263 1971)">Symbols are supported in up to nine weights and three scales.</text>
  <text style="stroke:none;fill:black;font-family:sans-serif;font-size:13;" transform="matrix(1 0 0 1 263 1989)">For optimal layout with text and other symbols, vertically align</text>
  <text style="stroke:none;fill:black;font-family:sans-serif;font-size:13;" transform="matrix(1 0 0 1 263 2007)">symbols with the adjacent text.</text>
  <line style="fill:none;stroke:#00AEEF;stroke-width:0.5;opacity:1.0;" x1="776" x2="776" y1="1919" y2="1933"/>
  <g transform="matrix(0.2 0 0 0.2 776 1933)">
   <path d="m16.5527 0.78125c2.58789 0 3.85742-0.976562 4.78516-3.71094l20.5566-57.5195h0.244141l20.6055 57.5195c0.927734 2.73438 2.19727 3.71094 4.73633 3.71094 2.58789 0 4.24805-1.5625 4.24805-4.00391 0-0.830078-0.146484-1.61133-0.537109-2.63672l-22.9004-60.9863c-1.12305-2.97852-3.125-4.49219-6.25-4.49219-3.02734 0-5.07812 1.46484-6.15234 4.44336l-22.9004 61.084c-0.390625 1.02539-0.537109 1.80664-0.537109 2.63672 0 2.44141 1.5625 3.95508 4.10156 3.95508Zm10.2051-20.9473h30.6641c2.00195 0 3.66211-1.66016 3.66211-3.66211 0-2.05078-1.66016-3.66211-3.66211-3.66211h-30.6641c-2.00195 0-3.66211 1.61133-3.66211 3.66211 0 2.00195 1.66016 3.66211 3.66211 3.66211Z"/>
  </g>
  <line style="fill:none;stroke:#00AEEF;stroke-width:0.5;opacity:1.0;" x1="792.836" x2="792.836" y1="1919" y2="1933"/>
  <text style="stroke:none;fill:black;font-family:sans-serif;font-size:13;font-weight:bold;" transform="matrix(1 0 0 1 776 1953)">Margins</text>
  <text style="stroke:none;fill:black;font-family:sans-serif;font-size:13;" transform="matrix(1 0 0 1 776 1971)">Leading and trailing margins on the left and right side of each symbol</text>
  <text style="stroke:none;fill:black;font-family:sans-serif;font-size:13;" transform="matrix(1 0 0 1 776 1989)">can be adjusted by modifying the x-location of the margin guidelines.</text>
  <text style="stroke:none;fill:black;font-family:sans-serif;font-size:13;" transform="matrix(1 0 0 1 776 2007)">Modifications are automatically applied proportionally to all</text>
  <text style="stroke:none;fill:black;font-family:sans-serif;font-size:13;" transform="matrix(1 0 0 1 776 2025)">scales and weights.</text>
  <g transform="matrix(0.2 0 0 0.2 1289 1933)">
   <path d="m14.209 13.1348 7.86133 7.86133c4.29688 4.39453 9.32617 4.10156 13.8672-1.02539l60.6934-68.2129-4.88281-4.88281-60.2539 67.6758c-1.80664 1.95312-3.4668 2.44141-5.81055 0.0976562l-5.17578-5.12695c-2.29492-2.29492-1.80664-3.95508 0.195312-5.81055l67.4805-62.1582-4.88281-4.83398-68.0664 62.5977c-4.98047 4.58984-5.32227 9.47266-1.02539 13.8184Zm44.873-97.4609c-2.05078 2.00195-2.24609 4.88281-1.07422 6.78711 1.12305 1.80664 3.4668 3.02734 6.5918 2.24609 5.85938-1.66016 12.5977-2.39258 18.8965 0.927734l-2.68555 7.12891c-1.61133 4.00391-0.732422 6.88477 1.70898 9.42383l10.2539 10.3027c2.34375 2.39258 4.54102 2.44141 7.08008 1.95312l4.44336-0.732422 2.58789 2.53906-0.195312 2.24609c-0.0976562 2.29492 0.537109 4.29688 2.7832 6.49414l3.36914 3.32031c2.29492 2.29492 5.51758 2.49023 7.8125 0.195312l12.9883-13.0371c2.29492-2.34375 2.14844-5.37109-0.195312-7.66602l-3.41797-3.41797c-2.19727-2.19727-4.05273-3.02734-6.34766-2.88086l-2.34375 0.244141-2.44141-2.44141 1.02539-4.6875c0.634766-2.73438-0.244141-4.98047-2.88086-7.61719l-11.2793-11.1816c-12.9395-12.8418-35.5957-11.0352-46.6797-0.146484Zm7.08008 2.05078c8.78906-6.39648 25.9766-5.66406 33.6914 1.95312l12.3047 12.207c1.02539 1.02539 1.2207 1.80664 0.927734 3.32031l-1.46484 6.64062 6.73828 6.68945 4.39453-0.244141c1.12305-0.0488281 1.51367 0.0488281 2.34375 0.878906l2.53906 2.49023-10.8398 10.8398-2.49023-2.49023c-0.830078-0.878906-0.976562-1.2207-0.927734-2.39258l0.292969-4.3457-6.68945-6.73828-6.83594 1.17188c-1.41602 0.292969-2.05078 0.195312-3.17383-0.878906l-8.93555-8.88672c-1.07422-1.02539-1.17188-1.70898-0.488281-3.36914l4.58984-11.4746c-6.10352-6.34766-17.041-7.51953-25.5859-4.58984-0.683594 0.244141-0.927734-0.390625-0.390625-0.78125Z"/>
  </g>
  <text style="stroke:none;fill:black;font-family:sans-serif;font-size:13;font-weight:bold;" transform="matrix(1 0 0 1 1289 1953)">Exporting</text>
  <text style="stroke:none;fill:black;font-family:sans-serif;font-size:13;" transform="matrix(1 0 0 1 1289 1971)">Symbols should be outlined when exporting to ensure the</text>
  <text style="stroke:none;fill:black;font-family:sans-serif;font-size:13;" transform="matrix(1 0 0 1 1289 1989)">design is preserved when submitting to Xcode.</text>
  <text id="template-version" style="stroke:none;fill:black;font-family:sans-serif;font-size:13;text-anchor:end;" transform="matrix(1 0 0 1 3036 1933)">Template v.7.0</text>
  <text style="stroke:none;fill:black;font-family:sans-serif;font-size:13;text-anchor:end;" transform="matrix(1 0 0 1 3036 1951)">Requires Xcode 26 or greater</text>
  <text id="descriptive-name" style="stroke:none;fill:black;font-family:sans-serif;font-size:13;text-anchor:end;" transform="matrix(1 0 0 1 3036 1969)">Generated from rugbyball.circle</text>
  <text style="stroke:none;fill:black;font-family:sans-serif;font-size:13;text-anchor:end;" transform="matrix(1 0 0 1 3036 1987)">Typeset at 100.0 points</text>
  <text style="stroke:none;fill:black;font-family:sans-serif;font-size:13;" transform="matrix(1 0 0 1 263 726)">Small</text>
  <text style="stroke:none;fill:black;font-family:sans-serif;font-size:13;" transform="matrix(1 0 0 1 263 1156)">Medium</text>
  <text style="stroke:none;fill:black;font-family:sans-serif;font-size:13;" transform="matrix(1 0 0 1 263 1586)">Large</text>
 </g>
 <g id="Guides">
  <g id="H-reference" style="fill:#27AAE1;stroke:none;" transform="matrix(1 0 0 1 339 696)">
   <path d="M0.993654 0L3.63775 0L29.3281-67.1323L30.0303-67.1323L30.0303-70.459L28.1226-70.459ZM11.6885-24.4799L46.9815-24.4799L46.2315-26.7285L12.4385-26.7285ZM55.1196 0L57.7637 0L30.6382-70.459L29.4326-70.459L29.4326-67.1323Z"/>
  </g>
  <line id="Baseline-S" style="fill:none;stroke:#27AAE1;opacity:1;stroke-width:0.5;" x1="263" x2="3036" y1="696" y2="696"/>
  <line id="Capline-S" style="fill:none;stroke:#27AAE1;opacity:1;stroke-width:0.5;" x1="263" x2="3036" y1="625.541" y2="625.541"/>
  <g id="H-reference" style="fill:#27AAE1;stroke:none;" transform="matrix(1 0 0 1 339 1126)">
   <path d="M0.993654 0L3.63775 0L29.3281-67.1323L30.0303-67.1323L30.0303-70.459L28.1226-70.459ZM11.6885-24.4799L46.9815-24.4799L46.2315-26.7285L12.4385-26.7285ZM55.1196 0L57.7637 0L30.6382-70.459L29.4326-70.459L29.4326-67.1323Z"/>
  </g>
  <line id="Baseline-M" style="fill:none;stroke:#27AAE1;opacity:1;stroke-width:0.5;" x1="263" x2="3036" y1="1126" y2="1126"/>
  <line id="Capline-M" style="fill:none;stroke:#27AAE1;opacity:1;stroke-width:0.5;" x1="263" x2="3036" y1="1055.54" y2="1055.54"/>
  <g id="H-reference" style="fill:#27AAE1;stroke:none;" transform="matrix(1 0 0 1 339 1556)">
   <path d="M0.993654 0L3.63775 0L29.3281-67.1323L30.0303-67.1323L30.0303-70.459L28.1226-70.459ZM11.6885-24.4799L46.9815-24.4799L46.2315-26.7285L12.4385-26.7285ZM55.1196 0L57.7637 0L30.6382-70.459L29.4326-70.459L29.4326-67.1323Z"/>
  </g>
  <line id="Baseline-L" style="fill:none;stroke:#27AAE1;opacity:1;stroke-width:0.5;" x1="263" x2="3036" y1="1556" y2="1556"/>
  <line id="Capline-L" style="fill:none;stroke:#27AAE1;opacity:1;stroke-width:0.5;" x1="263" x2="3036" y1="1485.54" y2="1485.54"/>
  <line id="right-margin-Black-S" style="fill:none;stroke:#00AEEF;stroke-width:0.5;opacity:1.0;" x1="2982.23" x2="2982.23" y1="600.785" y2="720.121"/>
  <line id="left-margin-Black-S" style="fill:none;stroke:#00AEEF;stroke-width:0.5;opacity:1.0;" x1="2884.57" x2="2884.57" y1="600.785" y2="720.121"/>
  <line id="right-margin-Regular-S" style="fill:none;stroke:#00AEEF;stroke-width:0.5;opacity:1.0;" x1="1496.11" x2="1496.11" y1="600.785" y2="720.121"/>
  <line id="left-margin-Regular-S" style="fill:none;stroke:#00AEEF;stroke-width:0.5;opacity:1.0;" x1="1403.58" x2="1403.58" y1="600.785" y2="720.121"/>
  <line id="right-margin-Ultralight-S" style="fill:none;stroke:#00AEEF;stroke-width:0.5;opacity:1.0;" x1="603.773" x2="603.773" y1="600.785" y2="720.121"/>
  <line id="left-margin-Ultralight-S" style="fill:none;stroke:#00AEEF;stroke-width:0.5;opacity:1.0;" x1="515.649" x2="515.649" y1="600.785" y2="720.121"/>
 </g>
 <g id="Symbols">
  <g id="Black-S" transform="matrix(1 0 0 1 2884.57 696)">
   <path class="monochrome-0 multicolor-0:tintColor hierarchical-0:secondary SFSymbolsPreviewWireframe" d="M48.8281 6.73828C72.0215 6.73828 90.8203-12.0605 90.8203-35.2539C90.8203-58.4473 72.0215-77.2461 48.8281-77.2461C25.6348-77.2461 6.83594-58.4473 6.83594-35.2539C6.83594-12.0605 25.6348 6.73828 48.8281 6.73828ZM48.8281-7.42188C33.4473-7.42188 20.9961-19.873 20.9961-35.2539C20.9961-50.6348 33.4473-63.0859 48.8281-63.0859C64.209-63.0859 76.6602-50.6348 76.6602-35.2539C76.6602-19.873 64.209-7.42188 48.8281-7.42188Z" data-clipstroke-keyframes="0 4 0 0.49909934 1.5010297 0 0.24858454 0.2505148 1.749485 0 0.49588796 0.0032113674 1.996659 0 0.7506426 0.7484567 1.251544 0 1 0.49909934 1.5010297"/>
   <path class="monochrome-1 multicolor-1:tintColor hierarchical-1:primary SFSymbolsPreviewWireframe" d="M64.6973-49.2676L55.4688-39.9902L56.6406-38.8672C57.1777-38.3301 57.1289-37.5 56.6406-37.0605C56.1523-36.5234 55.3711-36.6211 54.834-37.1094L50.6836-41.2109C50.1953-41.6992 50.1465-42.4805 50.6348-42.9688C51.1719-43.5059 52.002-43.5059 52.4902-43.0176L53.6621-41.7969L62.8906-51.123C62.5-51.3184 62.0605-51.4648 61.5723-51.6113C53.5645-53.8574 44.1406-50 39.1602-45.0195C34.1309-39.9902 30.3223-30.5664 32.5684-22.6074C32.7148-22.0703 32.8613-21.582 33.1055-21.1914L42.2852-30.3711L41.0645-31.5918C40.5762-32.0801 40.5273-32.8613 41.0156-33.3496C41.5527-33.8867 42.3828-33.8867 42.8711-33.3984L47.0215-29.248C47.5586-28.7109 47.5098-27.8809 47.0215-27.4414C46.5332-26.9043 45.752-27.002 45.2148-27.4902L44.0918-28.5645L34.9609-19.4336C35.3516-19.2383 35.7422-19.0918 36.2305-18.9453C44.2383-16.6504 53.6621-20.5078 58.6426-25.4883C63.6719-30.5176 67.4805-39.9414 65.2344-47.9492C65.0879-48.4863 64.9414-48.9258 64.6973-49.2676ZM54.1992-36.4258C54.7363-35.8887 54.6875-35.0586 54.1992-34.6191C53.7109-34.082 52.9297-34.1797 52.3926-34.668L48.2422-38.7695C47.7539-39.2578 47.7051-40.0391 48.1934-40.5273C48.7305-41.0645 49.5605-41.0645 50.0488-40.5762ZM51.8066-34.0332C52.3438-33.4961 52.2949-32.666 51.8066-32.2266C51.3184-31.6895 50.5371-31.7871 50-32.2754L45.8496-36.377C45.3613-36.8652 45.3125-37.6465 45.8008-38.1348C46.3379-38.6719 47.168-38.6719 47.6562-38.1836ZM49.4629-31.6895C50-31.1523 49.9512-30.3223 49.4629-29.8828C48.9746-29.3457 48.1934-29.4434 47.6562-29.9316L43.5059-34.0332C43.0176-34.5215 42.9688-35.3027 43.457-35.791C43.9941-36.3281 44.8242-36.3281 45.3125-35.8398Z"/>
  </g>
  <g id="Regular-S" transform="matrix(1 0 0 1 1403.58 696)">
   <path class="monochrome-0 multicolor-0:tintColor hierarchical-0:secondary SFSymbolsPreviewWireframe" d="M46.2402 4.15039C68.0176 4.15039 85.6934-13.4766 85.6934-35.2539C85.6934-57.0312 68.0176-74.6582 46.2402-74.6582C24.5117-74.6582 6.83594-57.0312 6.83594-35.2539C6.83594-13.4766 24.5117 4.15039 46.2402 4.15039ZM46.2402-3.27148C28.5645-3.27148 14.3066-17.5781 14.3066-35.2539C14.3066-52.9297 28.5645-67.2363 46.2402-67.2363C63.916-67.2363 78.2227-52.9297 78.2227-35.2539C78.2227-17.5781 63.916-3.27148 46.2402-3.27148Z" data-clipstroke-keyframes="0 4 0 0.49914446 1.5008684 0 0.24828511 0.25085935 1.7491465 0 0.49580374 0.0033407123 1.9966576 0 0.75060123 0.7485432 1.2514638 0 1 0.49914446 1.5008684"/>
   <path class="monochrome-1 multicolor-1:tintColor hierarchical-1:primary SFSymbolsPreviewWireframe" d="M64.4531-52.0996L52.9297-40.625L54.1504-39.3555C54.541-39.0137 54.4922-38.3301 54.1504-37.9883C53.7598-37.6465 53.125-37.6465 52.7832-37.9883L48.9258-41.8457C48.5352-42.2363 48.5352-42.8711 48.9258-43.2129C49.2676-43.6035 49.8535-43.6035 50.2441-43.2129L51.4648-41.9922L63.0859-53.5156C62.6465-53.7598 62.1094-53.9551 61.377-54.1992C52.9297-56.6895 41.8457-53.2227 35.0098-46.4355C28.2227-39.5996 24.7559-28.5156 27.2949-20.0684C27.4414-19.3848 27.6367-18.8965 27.8809-18.457L39.5996-30.0293L38.3301-31.2988C37.9395-31.6895 37.9395-32.2754 38.3301-32.6172C38.7207-33.0078 39.3066-33.0078 39.6973-32.6172L43.5547-28.7598C43.9453-28.418 43.8965-27.7832 43.5547-27.4414C43.2129-27.0508 42.5781-27.0508 42.1875-27.4414L40.918-28.6621L29.2969-16.9922C29.7363-16.748 30.2734-16.5527 30.957-16.3574C39.4043-13.8672 50.5371-17.2852 57.373-24.0723C64.1602-30.9082 67.5781-42.041 65.0879-50.4883C64.8926-51.1719 64.6973-51.6602 64.4531-52.0996ZM51.5137-36.7676C51.9043-36.4258 51.8555-35.7422 51.5137-35.4004C51.123-35.0098 50.4883-35.0098 50.0977-35.4004L46.2402-39.2578C45.8496-39.6484 45.8496-40.2832 46.2402-40.625C46.6309-41.0156 47.2168-41.0156 47.6074-40.625ZM48.877-34.082C49.2676-33.7402 49.2188-33.0566 48.877-32.7637C48.4863-32.373 47.9004-32.373 47.5098-32.7637L43.6523-36.6211C43.2617-36.9629 43.2617-37.5977 43.6523-37.9395C44.043-38.3301 44.6289-38.3301 44.9707-37.9395ZM46.2402-31.4453C46.6309-31.1035 46.582-30.4199 46.2402-30.0781C45.8496-29.6875 45.2148-29.6875 44.8242-30.0781L40.9668-33.9355C40.5762-34.3262 40.5762-34.9609 40.9668-35.3027C41.3574-35.6934 41.9434-35.6934 42.334-35.3027Z"/>
  </g>
  <g id="Ultralight-S" transform="matrix(1 0 0 1 515.649 696)">
   <path class="monochrome-0 multicolor-0:tintColor hierarchical-0:secondary SFSymbolsPreviewWireframe" d="M44.0606 1.97072C64.6118 1.97072 81.2886-14.7026 81.2886-35.2539C81.2886-55.8052 64.6118-72.4785 44.0606-72.4785C23.5127-72.4785 6.83594-55.8052 6.83594-35.2539C6.83594-14.7026 23.5127 1.97072 44.0606 1.97072ZM44.0606-0.274438C24.7046-0.274438 9.0391-15.898 9.0391-35.2539C9.0391-54.6099 24.7046-70.2334 44.0606-70.2334C63.4165-70.2334 79.04-54.6099 79.04-35.2539C79.04-15.898 63.4165-0.274438 44.0606-0.274438Z" data-clipstroke-keyframes="0 4 0 0.49911258 1.5011578 0 0.24859153 0.25052106 1.7495481 0 0.49577427 0.0033383023 1.9966562 0 0.75064886 0.74846375 1.2516088 0 1 0.49911258 1.5011578"/>
   <path class="monochrome-1 multicolor-1:tintColor hierarchical-1:primary SFSymbolsPreviewWireframe" d="M62.3643-52.3267L51.2949-41.2607L53.0151-39.4917C53.315-39.1953 53.3115-38.6934 53.0151-38.397C52.7608-38.146 52.2622-38.1006 52.0112-38.397L47.291-43.1172C46.9912-43.417 46.9912-43.8701 47.291-44.1665C47.5874-44.4663 48.1279-44.4663 48.3823-44.1665L50.1934-42.3101L61.2695-53.3794C61.0117-53.5327 60.6563-53.6372 60.1963-53.7905C50.7954-56.644 40.3926-53.1318 33.3296-46.0723C26.27-39.0093 22.5762-28.5156 25.6602-19.2056C25.7612-18.8398 25.9111-18.4878 26.0191-18.1392L37.1021-29.2573L35.2422-31.0718C34.9424-31.3716 34.9424-31.8667 35.2422-32.1631C35.542-32.4629 36.0825-32.4629 36.3369-32.1631L41.0117-27.4429C41.3115-27.1465 41.3081-26.648 41.0117-26.3516C40.7608-26.1426 40.2622-26.0972 39.9624-26.3516L38.1934-28.1626L27.1172-17.083C27.4204-16.8843 27.7759-16.7798 28.187-16.6299C37.5879-13.7764 47.9942-17.2852 55.0571-24.3447C62.1167-31.4077 65.6255-41.814 62.772-51.2148C62.6675-51.6714 62.5176-52.0234 62.3643-52.3267ZM49.9697-36.4497C50.2695-36.1533 50.2661-35.6514 49.9697-35.355C49.7153-35.1006 49.2168-35.0552 48.917-35.355L44.2422-40.0298C43.9424-40.3296 43.9424-40.8281 44.2422-41.1245C44.542-41.4243 45.0825-41.4243 45.3369-41.1245ZM47.0606-33.4463C47.3604-33.1499 47.3569-32.648 47.0606-32.355C46.8062-32.1006 46.311-32.0552 46.0112-32.355L41.3364-37.0298C41.0366-37.3262 41.0366-37.8247 41.3364-38.1211C41.6362-38.4209 42.1768-38.4209 42.4278-38.1211ZM44.0152-30.4917C44.315-30.1953 44.3115-29.6934 44.0152-29.397C43.7608-29.1426 43.2622-29.0972 42.9624-29.397L38.2876-34.0718C37.9878-34.3716 37.9878-34.8701 38.2876-35.1665C38.5874-35.4663 39.128-35.4663 39.3369-35.1665Z"/>
  </g>
 </g>
</svg>
